<svg xmlns="http://www.w3.org/2000/svg" xmlns:xlink="http://www.w3.org/1999/xlink" width="500" zoomAndPan="magnify" viewBox="0 0 375 374.999991" height="500" preserveAspectRatio="xMidYMid meet" version="1.0"><defs><clipPath id="2fbaf7ee3e"><path d="M 33.898438 94.214844 L 341 94.214844 L 341 208.964844 L 33.898438 208.964844 Z M 33.898438 94.214844 " clip-rule="nonzero"/></clipPath></defs><rect x="-37.5" width="450" fill="#ffffff" y="-37.499999" height="449.999989" fill-opacity="1"/><rect x="-37.5" width="450" fill="#ffffff" y="-37.499999" height="449.999989" fill-opacity="1"/><g clip-path="url(#2fbaf7ee3e)"><path fill="#457d58" d="M 51.992188 111.707031 C 75.773438 136.347656 92.105469 151.960938 121.296875 165.066406 C 128.246094 166.386719 134.886719 167.472656 141.605469 168.277344 C 134.28125 165.835938 127.390625 162.894531 121.144531 159.414062 C 109.769531 153.082031 107.824219 151.175781 101.402344 140.773438 C 123.382812 156.601562 140.503906 161.238281 166.679688 164.59375 C 185.246094 166.972656 200.074219 168.25 215.007812 168.5625 C 222.890625 167.515625 231.5625 165.527344 243.660156 161.746094 C 265.367188 154.957031 293.152344 145.367188 305.457031 124.890625 C 306.519531 140.929688 277.847656 157.078125 250.410156 167.710938 C 253.722656 167.507812 257.140625 167.277344 260.699219 167.015625 L 270.078125 166.527344 C 259.828125 171.128906 262.730469 170.429688 251.316406 172.976562 C 242.039062 175.050781 231.792969 176.480469 221.097656 177.191406 C 215.679688 178.566406 211.058594 179.472656 207.710938 179.820312 C 197.578125 180.878906 179.890625 180.386719 163.75 179.058594 C 220.375 191.125 280.878906 178.464844 320.8125 133.25 C 325.957031 127.425781 330.269531 121.449219 335.421875 115.554688 C 331.507812 125.375 327.078125 132.023438 320.460938 140.222656 C 311.921875 150.808594 302.277344 159.703125 291.824219 167.011719 C 303.660156 161.644531 314.460938 155.085938 322.996094 147.488281 L 327.628906 143.265625 L 324.578125 148.894531 C 315.246094 162.34375 294.09375 173.632812 272.464844 181.414062 C 264.226562 187.183594 254.863281 191.671875 244.933594 195.121094 C 267.34375 191.730469 289 185.496094 308.101562 175.886719 C 326.144531 166.808594 303.1875 177.933594 321.292969 169.238281 C 296.636719 193.644531 253.886719 203.960938 220.320312 207.160156 C 200.769531 209.023438 178.558594 208.277344 156.488281 204.484375 C 114.507812 200.480469 60.441406 183.53125 35.992188 153.082031 C 56.640625 165.628906 68.292969 173.09375 86.871094 179.691406 C 76.023438 173.054688 66.328125 165.167969 58.375 155.9375 C 91.261719 176.25 107.78125 186.125 147.015625 193.347656 L 147.351562 193.40625 C 172.070312 196.382812 198.390625 196.625 222.808594 192.917969 C 188.605469 196.019531 154.082031 192.957031 122.480469 178.84375 C 108.203125 172.46875 97.0625 166.558594 87.300781 160.175781 C 84.929688 158.886719 82.769531 157.511719 80.894531 156.046875 L 79.789062 154.980469 C 65.847656 144.78125 54.019531 132.902344 38.105469 116.023438 C 56.019531 126.675781 66.417969 139.507812 85.148438 150.765625 C 71.910156 139.929688 60.574219 127.105469 51.992188 111.707031 Z M 340.710938 146.5625 C 341.019531 162.039062 328.292969 172.929688 312.417969 165.613281 C 320.941406 149.535156 331.867188 157.980469 340.710938 146.5625 Z M 33.972656 187.597656 C 40.523438 173.578125 56.75 169.417969 67.765625 182.988281 C 53.023438 193.652344 46.945312 181.257812 33.972656 187.597656 Z M 75.21875 94.214844 C 61.867188 102.042969 59.238281 118.589844 73.777344 128.292969 C 83.023438 112.621094 70.113281 107.722656 75.21875 94.214844 Z M 75.21875 94.214844 " fill-opacity="1" fill-rule="evenodd"/></g></svg>