<svg xmlns="http://www.w3.org/2000/svg" xmlns:xlink="http://www.w3.org/1999/xlink" width="500" zoomAndPan="magnify" viewBox="0 0 375 374.999991" height="500" preserveAspectRatio="xMidYMid meet" version="1.0"><defs><clipPath id="8162dd24c2"><path d="M 96 98.027344 L 279 98.027344 L 279 277.277344 L 96 277.277344 Z M 96 98.027344 " clip-rule="nonzero"/></clipPath></defs><rect x="-37.5" width="450" fill="#ffffff" y="-37.499999" height="449.999989" fill-opacity="1"/><rect x="-37.5" width="450" fill="#1a1a1a" y="-37.499999" height="449.999989" fill-opacity="1"/><g clip-path="url(#8162dd24c2)"><path fill="#457d58" d="M 129.15625 277.117188 C 129.15625 277.117188 128.914062 276.824219 128.816406 276.632812 C 128.089844 275.46875 127.941406 274.15625 127.699219 272.847656 C 127.023438 268.484375 127.070312 264.121094 127.359375 259.753906 C 127.601562 255.777344 127.941406 251.800781 128.28125 247.875 C 128.28125 247.484375 128.234375 247.242188 127.847656 247 C 127.359375 246.710938 126.925781 246.417969 126.488281 246.03125 C 125.613281 245.304688 125.277344 244.238281 125.226562 243.171875 C 125.082031 241.183594 124.984375 239.195312 124.839844 237.207031 C 124.789062 236.378906 124.839844 236.332031 123.964844 236.429688 C 120.863281 236.625 117.808594 236.914062 114.703125 237.109375 C 110.726562 237.300781 106.75 237.449219 102.773438 237.542969 C 102.242188 237.542969 101.753906 237.496094 101.222656 237.351562 C 100.929688 237.253906 100.59375 237.011719 100.542969 236.769531 C 100.542969 236.527344 100.785156 236.1875 100.980469 235.992188 C 101.367188 235.703125 101.851562 235.507812 102.289062 235.265625 C 102.289062 235.3125 102.386719 235.410156 102.386719 235.460938 C 102.046875 235.703125 101.753906 235.894531 101.417969 236.136719 C 101.417969 236.136719 101.417969 236.234375 101.417969 236.285156 C 101.660156 236.285156 101.851562 236.285156 102.09375 236.285156 C 104.375 235.992188 106.703125 235.652344 108.980469 235.363281 C 113.152344 234.828125 117.371094 234.296875 121.542969 233.761719 C 122.269531 233.664062 122.996094 233.566406 123.722656 233.519531 C 124.207031 233.519531 124.402344 233.324219 124.355469 232.792969 C 124.113281 230.609375 123.917969 228.425781 123.675781 226.246094 C 123.675781 225.808594 123.433594 225.664062 122.996094 225.613281 C 119.3125 225.371094 115.578125 225.082031 111.890625 224.839844 C 108.496094 224.644531 105.101562 224.449219 101.707031 224.257812 C 100.6875 224.207031 99.71875 223.917969 98.699219 223.722656 C 98.3125 223.625 97.972656 223.480469 97.632812 223.238281 C 96.859375 222.800781 96.519531 221.976562 96.761719 221.25 C 97.003906 220.472656 97.632812 220.039062 98.605469 220.085938 C 99.914062 220.183594 101.222656 220.28125 102.53125 220.328125 C 107.382812 220.472656 112.277344 220.570312 117.128906 220.667969 C 118.921875 220.71875 120.667969 220.863281 122.464844 220.960938 C 123.191406 220.960938 123.238281 220.960938 123.140625 220.230469 C 122.316406 213.007812 121.492188 205.78125 120.621094 198.554688 C 119.796875 191.667969 118.777344 184.78125 118 177.894531 C 117.660156 174.988281 117.710938 172.027344 117.566406 169.070312 C 117.515625 167.179688 117.46875 165.289062 117.417969 163.394531 C 117.417969 162.570312 117.371094 162.570312 116.59375 162.8125 C 110.628906 164.851562 104.617188 166.886719 98.652344 168.925781 C 98.3125 169.023438 97.925781 169.167969 97.585938 169.167969 C 97.292969 169.167969 96.90625 168.972656 96.808594 168.730469 C 96.710938 168.535156 96.808594 168.050781 97.050781 167.859375 C 97.441406 167.46875 97.925781 167.128906 98.410156 166.9375 C 102.917969 164.851562 107.429688 162.765625 111.941406 160.730469 C 113.441406 160.050781 114.945312 159.46875 116.5 158.835938 C 116.984375 158.644531 117.175781 158.402344 117.082031 157.867188 C 116.59375 153.019531 116.160156 148.167969 115.722656 143.320312 C 115.382812 139.292969 115.09375 135.269531 115.820312 131.246094 C 115.917969 130.613281 116.109375 129.933594 116.402344 129.351562 C 116.933594 128.382812 118 128.1875 118.777344 128.964844 C 119.3125 129.546875 119.796875 130.226562 120.136719 130.953125 C 121.152344 132.941406 121.492188 135.171875 122.027344 137.304688 C 122.851562 140.796875 123.578125 144.289062 124.402344 147.78125 C 124.402344 147.976562 124.5 148.121094 124.597656 148.507812 C 125.371094 147.78125 126.050781 147.152344 126.683594 146.421875 C 126.828125 146.277344 126.730469 145.839844 126.683594 145.597656 C 126.34375 140.070312 125.953125 134.492188 125.664062 128.964844 C 125.519531 126.199219 125.566406 123.386719 125.566406 120.625 C 125.566406 120.234375 125.566406 119.800781 126.101562 119.703125 C 126.632812 119.605469 126.972656 119.992188 127.070312 120.429688 C 127.359375 121.59375 127.699219 122.804688 127.847656 124.019531 C 128.574219 130.273438 129.300781 136.578125 130.027344 142.882812 C 130.027344 143.078125 130.125 143.269531 130.171875 143.5625 C 130.417969 143.417969 130.5625 143.320312 130.707031 143.222656 C 133.324219 141.234375 135.992188 139.246094 138.660156 137.304688 C 139.144531 136.917969 139.386719 136.53125 139.4375 135.898438 C 139.921875 131.535156 140.359375 127.21875 140.941406 122.855469 C 141.230469 120.671875 141.714844 118.488281 142.636719 116.453125 C 142.832031 115.96875 143.171875 115.484375 143.558594 115.144531 C 144.625 114.175781 146.273438 114.660156 146.613281 116.066406 C 146.757812 116.695312 146.757812 117.421875 146.710938 118.101562 C 146.324219 122.613281 145.933594 127.121094 145.496094 131.582031 C 145.496094 131.828125 145.496094 132.070312 145.496094 132.457031 C 145.789062 132.261719 146.078125 132.164062 146.273438 132.019531 C 149.523438 129.839844 152.675781 127.414062 156.070312 125.523438 C 162.859375 121.640625 169.113281 116.988281 175.566406 112.621094 C 176.4375 112.039062 177.359375 111.457031 178.230469 110.925781 C 178.425781 110.828125 178.621094 110.683594 178.863281 110.535156 C 178.667969 110.292969 178.472656 110.148438 178.328125 109.957031 C 177.019531 108.402344 175.660156 106.851562 174.351562 105.25 C 174.207031 105.058594 174.160156 104.816406 174.0625 104.570312 C 174.304688 104.570312 174.546875 104.570312 174.789062 104.667969 C 177.066406 105.542969 179.105469 106.804688 181.042969 108.160156 C 181.578125 108.546875 181.917969 108.5 182.449219 108.160156 C 183.371094 107.480469 184.34375 106.949219 185.3125 106.414062 C 186.332031 105.832031 187.347656 105.300781 188.367188 104.71875 C 189.773438 103.894531 191.132812 103.894531 192.539062 104.71875 C 193.652344 105.347656 194.769531 105.929688 195.835938 106.558594 C 197.046875 107.289062 198.210938 108.160156 199.425781 108.9375 C 200.152344 109.421875 200.832031 109.859375 201.558594 110.34375 C 203.15625 111.3125 204.710938 112.28125 206.359375 113.253906 C 206.164062 113.011719 205.972656 112.769531 205.777344 112.523438 C 203.496094 109.664062 201.21875 106.851562 199.035156 103.992188 C 198.210938 102.921875 197.582031 101.710938 196.902344 100.59375 C 196.707031 100.304688 196.5625 99.867188 196.5625 99.527344 C 196.5625 99.140625 196.707031 98.605469 197 98.414062 C 197.242188 98.21875 197.824219 98.316406 198.113281 98.511719 C 198.890625 99.042969 199.617188 99.625 200.296875 100.257812 C 203.546875 103.164062 206.214844 106.511719 208.878906 109.90625 C 211.597656 113.398438 214.3125 116.9375 217.027344 120.429688 C 217.464844 120.964844 217.996094 121.449219 218.578125 121.835938 C 220.617188 123.144531 222.75 124.308594 224.785156 125.617188 C 227.746094 127.511719 230.65625 129.546875 233.5625 131.488281 C 234.582031 132.164062 235.601562 132.84375 236.621094 133.523438 C 236.667969 133.523438 236.714844 133.476562 236.8125 133.425781 C 236.8125 133.136719 236.765625 132.796875 236.714844 132.503906 C 236.183594 128.480469 235.601562 124.453125 235.066406 120.429688 C 234.96875 119.847656 235.066406 119.167969 235.164062 118.585938 C 235.40625 117.519531 236.425781 117.230469 237.203125 117.910156 C 237.6875 118.34375 238.121094 118.878906 238.363281 119.507812 C 239.238281 121.835938 240.109375 124.117188 240.742188 126.492188 C 241.710938 130.175781 242.488281 133.960938 243.410156 137.695312 C 243.503906 138.128906 243.84375 138.566406 244.183594 138.90625 C 244.863281 139.488281 245.640625 139.972656 246.464844 140.605469 C 246.464844 140.167969 246.511719 139.925781 246.511719 139.683594 C 246.609375 137.0625 246.5625 134.394531 246.753906 131.777344 C 246.898438 129.304688 247.433594 126.878906 248.257812 124.550781 C 248.304688 124.359375 248.5 124.261719 248.597656 124.066406 C 248.695312 124.210938 248.792969 124.40625 248.839844 124.550781 C 249.179688 127.074219 249.617188 129.644531 249.808594 132.164062 C 250.050781 135.609375 250.101562 139.050781 250.199219 142.496094 C 250.199219 143.125 250.390625 143.511719 250.875 143.902344 C 252.476562 145.308594 254.078125 146.714844 255.679688 148.167969 C 255.824219 148.3125 256.015625 148.460938 256.257812 148.703125 C 256.355469 148.3125 256.453125 148.023438 256.503906 147.734375 C 257.617188 142.882812 258.734375 137.984375 259.945312 133.136719 C 260.1875 132.070312 260.816406 131.148438 261.253906 130.128906 C 261.351562 129.886719 261.546875 129.691406 261.738281 129.5 C 262.757812 128.335938 264.164062 128.480469 264.648438 129.984375 C 265.085938 131.390625 265.28125 132.894531 265.425781 134.394531 C 265.765625 138.128906 265.425781 141.863281 264.988281 145.550781 C 263.96875 154.085938 263.4375 162.621094 263.292969 171.15625 C 263.292969 171.738281 263.535156 172.078125 263.96875 172.367188 C 266.6875 174.453125 269.449219 176.539062 272.164062 178.671875 C 273.039062 179.351562 273.816406 180.125 274.589844 180.902344 C 274.882812 181.195312 275.125 181.484375 275.269531 181.871094 C 275.511719 182.359375 275.464844 182.84375 275.027344 183.230469 C 274.640625 183.617188 274.152344 183.714844 273.667969 183.425781 C 272.796875 182.84375 271.921875 182.261719 271.050781 181.628906 C 268.625 179.933594 266.152344 178.1875 263.726562 176.488281 C 263.582031 176.394531 263.4375 176.34375 263.242188 176.199219 C 263.195312 176.394531 263.144531 176.539062 263.097656 176.683594 C 262.417969 181.871094 261.789062 187.0625 261.109375 192.25 C 260.429688 197.488281 259.75 202.726562 259.21875 208.011719 C 259.121094 208.980469 259.460938 210.046875 259.703125 211.066406 C 260.332031 214.074219 261.0625 217.078125 261.691406 220.085938 C 261.789062 220.570312 261.980469 220.667969 262.417969 220.667969 C 265.039062 220.570312 267.65625 220.472656 270.324219 220.425781 C 271.003906 220.425781 271.730469 220.425781 272.410156 220.621094 C 273.667969 220.960938 274.058594 222.269531 273.039062 223.140625 C 272.457031 223.625 271.730469 224.0625 271.003906 224.207031 C 268.527344 224.695312 266.054688 225.03125 263.582031 225.371094 C 263.242188 225.421875 262.902344 225.46875 262.515625 225.46875 C 262.613281 226.003906 262.710938 226.488281 262.804688 226.972656 C 262.710938 226.972656 262.660156 227.019531 262.5625 227.070312 C 262.371094 226.730469 262.128906 226.4375 261.980469 226.101562 C 261.789062 225.664062 261.546875 225.519531 261.0625 225.566406 C 260.089844 225.613281 259.167969 225.664062 258.199219 225.664062 C 257.570312 225.664062 257.328125 225.855469 257.277344 226.488281 C 257.179688 228.039062 256.988281 229.589844 256.792969 231.144531 C 256.746094 231.726562 256.9375 231.871094 257.472656 231.917969 C 259.65625 232.113281 261.835938 232.257812 263.96875 232.5 C 267.121094 232.890625 270.273438 233.324219 273.476562 233.808594 C 275.125 234.054688 276.773438 234.34375 278.421875 234.636719 C 278.566406 234.636719 278.710938 234.78125 278.859375 234.878906 C 278.710938 234.972656 278.617188 235.167969 278.46875 235.167969 C 274.785156 235.652344 271.097656 236.1875 267.363281 236.476562 C 263.96875 236.769531 260.574219 236.816406 257.179688 236.960938 C 256.355469 236.960938 256.355469 236.960938 256.308594 237.835938 C 256.210938 239.628906 256.066406 241.375 255.96875 243.171875 C 255.871094 245.59375 254.515625 246.855469 252.136719 247.726562 C 251.847656 247.824219 251.554688 247.875 251.214844 247.921875 C 250.34375 248.117188 250.34375 248.117188 250.34375 249.039062 C 250.34375 251.996094 250.34375 254.90625 250.246094 257.863281 C 250.246094 258.6875 250.050781 259.5625 249.808594 260.335938 C 249.714844 260.773438 249.324219 261.160156 248.984375 261.453125 C 248.792969 261.597656 248.355469 261.597656 248.160156 261.453125 C 247.96875 261.308594 247.773438 260.917969 247.820312 260.675781 C 248.550781 256.84375 247.820312 252.964844 247.917969 249.136719 C 247.917969 248.699219 247.917969 248.359375 247.289062 248.457031 C 240.984375 249.183594 234.679688 248.601562 228.425781 248.261719 C 226.773438 248.164062 225.125 248.066406 223.476562 248.117188 C 220.375 248.164062 217.320312 247.921875 214.214844 247.679688 C 210.480469 247.339844 206.746094 247.242188 202.964844 247 C 200.25 246.808594 197.53125 246.566406 194.867188 246.371094 C 190.453125 246.078125 186.039062 246.371094 181.625 246.710938 C 178.863281 246.953125 176.148438 247.050781 173.382812 247.242188 C 169.890625 247.484375 166.449219 247.777344 162.957031 248.019531 C 162.132812 248.066406 161.257812 248.164062 160.386719 248.117188 C 156.652344 247.972656 152.871094 248.261719 149.136719 248.503906 C 146.226562 248.699219 143.316406 248.84375 140.359375 248.84375 C 137.980469 248.84375 135.605469 248.601562 133.230469 248.40625 C 132.695312 248.40625 132.5 248.503906 132.453125 249.039062 C 132.210938 253.402344 131.917969 257.765625 131.675781 262.132812 C 131.433594 266.738281 130.707031 271.296875 129.640625 275.757812 C 129.542969 276.195312 129.445312 276.679688 129.300781 277.164062 C 129.300781 277.214844 129.203125 277.261719 129.105469 277.359375 Z M 212.613281 222.511719 C 212.613281 222.511719 212.613281 222.609375 212.664062 222.65625 C 214.601562 222.511719 216.589844 222.367188 218.53125 222.269531 C 227.792969 221.832031 237.105469 221.394531 246.367188 220.960938 C 246.949219 220.960938 247.09375 220.765625 247.09375 220.183594 C 246.996094 205.054688 246.65625 189.972656 247.046875 174.839844 C 247.046875 174.210938 246.949219 173.582031 246.753906 172.949219 C 245.738281 169.410156 244.71875 165.917969 243.699219 162.378906 C 243.503906 161.699219 243.214844 161.261719 242.679688 160.824219 C 238.609375 157.625 234.484375 154.425781 230.460938 151.128906 C 224.253906 146.082031 218.09375 140.941406 211.839844 135.949219 C 206.40625 131.582031 200.832031 127.414062 195.351562 123.097656 C 194.867188 122.710938 194.476562 122.710938 193.992188 123.046875 C 189.917969 125.425781 185.894531 127.898438 181.722656 130.175781 C 169.308594 136.871094 156.894531 143.511719 144.480469 150.15625 C 143.753906 150.546875 143.460938 151.03125 143.363281 151.804688 C 143.074219 154.617188 142.683594 157.382812 142.347656 160.195312 C 141.519531 166.695312 140.648438 173.144531 139.824219 179.59375 C 138.902344 187.0625 137.980469 194.480469 137.109375 201.949219 C 136.867188 204.132812 136.476562 206.3125 136.769531 208.59375 C 137.058594 210.921875 137.207031 213.296875 137.449219 215.625 C 137.640625 217.417969 137.835938 219.261719 138.03125 221.054688 C 138.078125 221.542969 138.222656 221.832031 138.855469 221.832031 C 140.988281 221.832031 143.074219 221.976562 145.207031 222.027344 C 149.136719 222.171875 153.0625 222.269531 156.941406 222.367188 C 158.058594 222.367188 159.027344 221.976562 159.996094 221.636719 C 159.804688 221.445312 159.609375 221.347656 159.414062 221.203125 C 157.816406 220.085938 156.117188 219.066406 154.566406 217.855469 C 152.820312 216.449219 151.558594 214.703125 151.027344 212.519531 C 150.589844 210.871094 150.6875 209.371094 152.09375 208.109375 C 152.140625 208.109375 152.191406 207.960938 152.238281 207.867188 C 151.65625 207.625 151.074219 207.429688 150.492188 207.136719 C 149.472656 206.605469 148.941406 205.636719 149.039062 204.617188 C 149.136719 203.648438 149.863281 202.871094 151.027344 202.578125 C 151.996094 202.335938 152.964844 202.144531 153.9375 201.851562 C 155.003906 201.5625 156.070312 201.222656 157.183594 200.882812 C 156.457031 200.058594 155.730469 199.332031 155.101562 198.554688 C 154.613281 198.023438 154.128906 197.441406 153.839844 196.808594 C 152.335938 193.707031 151.707031 190.359375 151.753906 186.917969 C 151.753906 184.539062 151.753906 182.210938 151.800781 179.835938 C 151.800781 179.59375 151.949219 179.253906 152.140625 179.15625 C 152.335938 179.058594 152.773438 179.109375 152.917969 179.253906 C 153.304688 179.59375 153.742188 179.980469 153.9375 180.464844 C 154.519531 181.726562 155.390625 182.648438 156.359375 183.570312 C 157.765625 184.929688 158.785156 186.480469 159.414062 188.324219 C 159.753906 189.4375 160.09375 190.554688 160.433594 191.765625 C 160.53125 191.523438 160.628906 191.328125 160.675781 191.183594 C 162.324219 186.140625 164.800781 181.535156 168.628906 177.800781 C 170.035156 176.441406 171.589844 175.277344 173.527344 174.742188 C 174.207031 174.550781 174.835938 174.210938 175.566406 173.96875 C 175.902344 173.871094 176.339844 173.726562 176.632812 173.824219 C 177.117188 174.015625 176.921875 174.5 176.875 174.9375 C 176.777344 175.570312 176.632812 176.148438 176.582031 176.78125 C 176.390625 178.867188 176.097656 180.902344 175.128906 182.792969 C 173.527344 185.898438 171.34375 188.613281 168.777344 190.941406 C 166.59375 192.929688 164.460938 194.964844 162.664062 197.390625 C 162.375 197.777344 162.082031 198.214844 162.230469 198.847656 C 162.664062 198.652344 163.101562 198.507812 163.488281 198.359375 C 170.667969 195.695312 178.085938 194.191406 185.699219 193.511719 C 198.019531 192.445312 210.285156 192.976562 222.457031 195.355469 C 225.902344 196.03125 229.199219 197.050781 232.304688 198.75 C 233.226562 199.234375 234.097656 199.914062 234.824219 200.640625 C 235.941406 201.804688 235.890625 203.453125 234.824219 204.617188 C 234.339844 205.101562 233.757812 205.441406 233.226562 205.878906 C 233.03125 206.023438 232.789062 206.21875 232.691406 206.460938 C 232.15625 207.476562 231.769531 208.542969 231.1875 209.515625 C 229.925781 211.601562 228.085938 213.152344 226.242188 214.703125 C 226.046875 214.847656 225.902344 215.042969 225.660156 215.238281 C 229.394531 215.820312 232.980469 216.402344 236.570312 216.984375 C 236.570312 217.078125 236.570312 217.128906 236.570312 217.226562 C 236.375 217.273438 236.132812 217.417969 235.941406 217.417969 C 235.261719 217.515625 234.535156 217.566406 233.855469 217.613281 C 230.023438 217.757812 226.191406 217.902344 222.363281 218.050781 C 221.925781 218.050781 221.441406 218.195312 221.101562 218.4375 C 218.726562 219.890625 216.203125 221.152344 213.585938 222.171875 C 213.292969 222.269531 213.003906 222.414062 212.710938 222.558594 Z M 183.226562 233.277344 C 178.910156 233.472656 170.957031 233.714844 163.003906 234.101562 C 156.992188 234.390625 151.027344 234.78125 145.011719 235.121094 C 141.375 235.3125 137.789062 235.605469 134.148438 235.796875 C 133.761719 235.796875 133.566406 235.945312 133.519531 236.378906 C 133.421875 237.640625 133.324219 238.949219 133.179688 240.210938 C 133.179688 240.648438 133.277344 240.792969 133.761719 240.746094 C 137.882812 239.96875 142.101562 239.871094 146.273438 239.679688 C 151.269531 239.484375 156.265625 238.949219 161.308594 239.144531 C 161.648438 239.144531 162.035156 239.144531 162.375 239.097656 C 166.789062 238.804688 171.199219 238.515625 175.660156 238.175781 C 179.6875 237.882812 183.710938 237.835938 187.785156 238.222656 C 189.675781 238.417969 191.617188 238.367188 193.554688 238.222656 C 196.660156 238.03125 199.8125 237.785156 202.914062 237.980469 C 206.796875 238.273438 210.675781 238.417969 214.503906 238.613281 C 216.980469 238.757812 219.453125 239 221.925781 239.097656 C 224.785156 239.242188 227.695312 239.289062 230.558594 239.386719 C 232.207031 239.4375 233.808594 239.582031 235.457031 239.628906 C 239.382812 239.726562 243.3125 239.871094 247.144531 240.601562 C 247.578125 240.695312 247.726562 240.550781 247.726562 240.113281 C 247.726562 239.097656 247.628906 238.078125 247.628906 237.058594 C 247.628906 236.476562 247.386719 236.285156 246.804688 236.285156 C 235.84375 235.605469 224.933594 234.925781 213.972656 234.246094 C 204.953125 233.664062 195.882812 233.230469 183.179688 233.230469 Z M 144.089844 145.792969 C 144.480469 145.597656 144.722656 145.5 144.917969 145.40625 C 152.53125 141.332031 160.144531 137.257812 167.757812 133.136719 C 175.660156 128.867188 183.613281 124.699219 192.003906 121.351562 C 192.148438 121.304688 192.296875 121.207031 192.488281 121.058594 C 192.34375 120.964844 192.246094 120.914062 192.148438 120.867188 C 190.015625 119.21875 187.832031 117.570312 185.699219 115.871094 C 185.3125 115.582031 185.019531 115.582031 184.632812 115.871094 C 182.257812 117.617188 179.878906 119.363281 177.457031 121.011719 C 173.820312 123.535156 170.085938 125.957031 166.253906 128.140625 C 158.785156 132.457031 151.949219 137.792969 144.820312 142.59375 C 144.625 142.6875 144.429688 142.929688 144.382812 143.125 C 144.238281 143.949219 144.140625 144.773438 143.996094 145.839844 Z M 224.980469 200.542969 L 224.980469 200.398438 C 224.980469 200.398438 224.640625 200.300781 224.445312 200.253906 C 221.199219 199.523438 217.851562 199.183594 214.503906 198.992188 C 209.414062 198.699219 204.273438 198.457031 199.179688 198.3125 C 196.367188 198.214844 193.507812 198.3125 190.644531 198.3125 C 191.082031 198.359375 191.519531 198.359375 191.957031 198.410156 C 195.980469 198.796875 199.957031 199.136719 203.933594 199.574219 C 206.066406 199.816406 208.25 200.203125 210.382812 200.589844 C 212.855469 201.078125 215.28125 201.609375 217.753906 202.191406 C 217.949219 202.191406 218.09375 202.386719 218.238281 202.484375 C 218.238281 202.53125 218.191406 202.578125 218.144531 202.628906 C 217.074219 202.53125 215.960938 202.433594 214.894531 202.335938 C 212.90625 202.144531 210.917969 201.949219 208.878906 201.804688 C 205.726562 201.609375 202.578125 201.511719 199.425781 201.367188 C 191.714844 201.027344 184.003906 200.738281 176.292969 201.367188 C 171.925781 201.753906 167.5625 202.386719 163.246094 203.113281 C 163.101562 203.113281 162.90625 203.210938 162.761719 203.308594 C 163.683594 203.695312 164.507812 204.132812 165.527344 203.984375 C 167.515625 203.648438 169.550781 203.308594 171.539062 203.113281 C 173.964844 202.871094 176.4375 202.726562 178.863281 202.675781 C 181.820312 202.628906 184.828125 202.675781 187.785156 202.726562 C 187.882812 202.726562 187.929688 202.824219 188.027344 202.871094 C 188.027344 202.917969 188.027344 203.015625 188.027344 203.066406 L 170.667969 204.714844 C 170.667969 204.714844 170.667969 204.8125 170.667969 204.859375 C 170.910156 204.859375 171.101562 204.957031 171.34375 204.957031 C 175.03125 205.148438 178.765625 205.246094 182.449219 205.054688 C 185.3125 204.90625 188.222656 205.054688 191.082031 205.054688 C 191.226562 205.054688 191.472656 205.054688 191.472656 205.101562 C 191.617188 205.78125 192.148438 205.488281 192.488281 205.488281 C 197 205.296875 201.507812 205.054688 206.019531 204.8125 C 208.152344 204.714844 210.335938 204.714844 212.46875 204.375 C 215.574219 203.890625 218.628906 203.160156 221.585938 201.996094 C 222.703125 201.5625 223.769531 201.078125 224.882812 200.640625 Z M 130.464844 221.394531 C 130.464844 221.394531 130.609375 221.394531 130.660156 221.394531 C 130.707031 221.152344 130.804688 220.910156 130.804688 220.667969 C 131.433594 214.363281 132.066406 208.109375 132.695312 201.804688 C 132.792969 200.738281 132.890625 199.621094 132.792969 198.507812 C 132.5 195.984375 131.96875 193.464844 131.675781 190.941406 C 130.417969 180.320312 129.203125 169.652344 127.941406 159.03125 C 127.941406 158.835938 127.847656 158.59375 127.796875 158.304688 C 127.359375 158.5 126.972656 158.691406 126.585938 158.835938 C 126.050781 159.03125 125.859375 159.324219 125.90625 159.90625 C 126.050781 161.699219 126.246094 163.445312 126.292969 165.238281 C 126.488281 176.394531 127.265625 187.5 128.429688 198.554688 C 128.765625 201.609375 129.15625 204.664062 129.398438 207.71875 C 129.738281 212.085938 129.980469 216.496094 130.269531 220.863281 C 130.269531 221.054688 130.367188 221.25 130.464844 221.445312 Z M 198.746094 120.429688 C 213.535156 130.953125 227.453125 142.300781 241.273438 153.792969 C 241.128906 153.453125 240.984375 153.164062 240.742188 152.921875 C 235.601562 147.101562 230.507812 141.28125 225.367188 135.464844 C 224.738281 134.734375 224.058594 134.007812 223.234375 133.476562 C 219.792969 131.246094 216.25 129.160156 212.808594 126.929688 C 209.027344 124.457031 205.292969 121.933594 201.507812 119.410156 C 201.316406 119.265625 200.976562 119.121094 200.832031 119.167969 C 200.152344 119.507812 199.472656 119.898438 198.695312 120.332031 Z M 207.960938 229.007812 C 207.960938 229.007812 208.394531 229.007812 208.589844 229.007812 C 214.359375 229.300781 220.179688 229.589844 225.949219 229.882812 C 232.835938 230.222656 239.722656 230.5625 246.609375 230.902344 C 247.09375 230.902344 247.289062 230.804688 247.238281 230.269531 C 247.191406 229.058594 247.144531 227.84375 247.144531 226.585938 C 247.144531 225.664062 247.144531 225.613281 246.171875 225.664062 C 236.863281 226.003906 227.550781 226.34375 218.238281 226.683594 C 218.046875 226.683594 217.804688 226.683594 217.609375 226.683594 C 217.414062 226.683594 217.269531 226.683594 217.074219 226.730469 C 219.695312 227.3125 222.363281 227.359375 224.980469 227.84375 C 224.980469 227.941406 224.980469 228.089844 224.980469 228.183594 C 219.355469 228.71875 213.679688 228.671875 208.007812 228.863281 Z M 134.246094 184.636719 C 134.246094 184.636719 134.394531 184.636719 134.488281 184.636719 C 135.605469 174.308594 136.769531 164.027344 137.882812 153.550781 C 137.496094 153.699219 137.300781 153.792969 137.15625 153.84375 C 135.460938 154.667969 133.761719 155.492188 132.066406 156.265625 C 131.578125 156.511719 131.433594 156.753906 131.484375 157.335938 C 132.308594 165.433594 133.132812 173.484375 133.957031 181.582031 C 134.054688 182.601562 134.199219 183.617188 134.296875 184.636719 Z M 161.402344 227.457031 C 161.402344 227.457031 161.402344 227.3125 161.402344 227.265625 C 153.789062 227.019531 146.226562 226.777344 138.5625 226.585938 C 138.757812 228.234375 138.902344 229.785156 139.097656 231.335938 C 139.046875 231.335938 138.953125 231.335938 138.902344 231.386719 C 138.804688 231.242188 138.660156 231.09375 138.660156 230.949219 C 138.417969 229.640625 138.125 228.332031 137.882812 227.019531 C 137.835938 226.683594 137.691406 226.535156 137.351562 226.488281 C 136.574219 226.488281 135.800781 226.4375 135.070312 226.390625 C 134.636719 226.390625 134.488281 226.488281 134.441406 226.925781 C 134.296875 228.574219 134.148438 230.222656 133.957031 231.871094 C 133.90625 232.355469 134.054688 232.5 134.539062 232.453125 C 135.265625 232.355469 136.042969 232.308594 136.769531 232.210938 C 137.59375 232.113281 138.417969 232.113281 139.195312 231.917969 C 141.183594 231.386719 143.121094 230.707031 145.160156 230.222656 C 149.863281 229.007812 154.710938 228.28125 159.5625 227.75 C 160.242188 227.652344 160.917969 227.554688 161.550781 227.507812 Z M 173.722656 210.96875 C 174.109375 210.96875 174.496094 210.96875 174.886719 210.96875 C 177.503906 211.210938 180.074219 211.503906 182.695312 211.746094 C 189.144531 212.328125 195.59375 212.859375 201.996094 213.394531 C 202.671875 213.441406 203.351562 213.539062 203.984375 213.394531 C 209.21875 212.277344 214.457031 211.019531 219.5 209.175781 C 219.695312 209.125 219.890625 209.03125 220.082031 208.933594 C 220.082031 208.882812 220.082031 208.789062 220.082031 208.738281 C 208.054688 209.855469 196.03125 210.144531 183.953125 209.855469 C 183.953125 209.949219 183.953125 210.046875 183.953125 210.144531 C 190.890625 210.386719 197.871094 210.582031 204.808594 210.824219 L 204.808594 210.96875 C 194.429688 211.890625 184.101562 211.261719 173.722656 210.96875 Z M 250.050781 185.171875 C 250.050781 185.171875 249.957031 185.171875 249.90625 185.171875 C 249.90625 185.511719 249.90625 185.800781 249.90625 186.140625 C 249.90625 197.488281 249.90625 208.789062 249.90625 220.136719 C 249.90625 220.230469 249.90625 220.328125 249.90625 220.378906 C 250.003906 220.523438 250.199219 220.8125 250.292969 220.765625 C 250.488281 220.765625 250.730469 220.570312 250.78125 220.378906 C 250.875 220.136719 250.78125 219.796875 250.828125 219.503906 C 251.167969 215.042969 251.410156 210.53125 251.796875 206.070312 C 252.089844 202.871094 252.476562 199.621094 252.769531 196.421875 C 252.816406 195.839844 252.769531 195.257812 252.621094 194.722656 C 251.847656 191.667969 250.972656 188.660156 250.148438 185.605469 C 250.148438 185.460938 250.003906 185.265625 249.957031 185.121094 Z M 191.957031 219.601562 C 191.957031 219.601562 191.957031 219.796875 191.957031 219.890625 C 193.703125 220.136719 195.449219 220.523438 197.242188 220.621094 C 200.34375 220.71875 203.449219 220.621094 206.550781 220.621094 C 207.230469 220.621094 207.960938 220.621094 208.589844 220.328125 C 210.335938 219.699219 211.984375 218.972656 213.730469 218.242188 C 213.875 218.195312 213.972656 218.097656 214.214844 217.902344 C 213.925781 217.902344 213.828125 217.808594 213.730469 217.808594 C 210.191406 217.613281 206.699219 217.417969 203.15625 217.226562 C 202.722656 217.226562 202.285156 217.226562 201.847656 217.324219 C 199.375 217.855469 196.855469 218.4375 194.378906 218.972656 C 193.605469 219.164062 192.78125 219.359375 192.003906 219.503906 Z M 253.738281 184.589844 C 253.738281 184.589844 253.835938 184.589844 253.933594 184.589844 C 253.933594 184.441406 254.027344 184.296875 254.027344 184.101562 C 254.269531 179.546875 254.464844 174.988281 254.660156 170.476562 C 254.660156 170.183594 254.464844 169.75 254.222656 169.554688 C 253.15625 168.730469 252.039062 167.90625 250.925781 167.128906 C 250.78125 167.035156 250.632812 166.984375 250.441406 166.886719 C 250.34375 168.199219 250.292969 169.410156 250.585938 170.621094 C 251.410156 174.113281 252.1875 177.652344 252.960938 181.144531 C 253.203125 182.308594 253.496094 183.472656 253.785156 184.636719 Z M 254.804688 163.734375 C 254.804688 163.734375 254.902344 163.445312 254.902344 163.394531 C 255.144531 160.730469 255.386719 158.011719 255.628906 155.347656 C 255.628906 154.910156 255.484375 154.667969 255.144531 154.472656 C 253.738281 153.601562 252.332031 152.777344 250.875 151.902344 C 250.78125 151.855469 250.632812 151.855469 250.488281 151.804688 C 250.488281 152 250.441406 152.144531 250.441406 152.289062 C 250.441406 154.375 250.441406 156.460938 250.441406 158.546875 C 250.441406 158.835938 250.632812 159.175781 250.828125 159.417969 C 251.945312 160.679688 253.109375 161.941406 254.222656 163.203125 C 254.367188 163.347656 254.515625 163.492188 254.757812 163.734375 Z M 188.171875 113.253906 C 188.414062 113.398438 188.511719 113.398438 188.609375 113.496094 C 191.324219 115.386719 193.992188 117.277344 196.707031 119.121094 C 196.855469 119.21875 197.046875 119.316406 197.144531 119.265625 C 198.019531 118.976562 198.890625 118.636719 199.957031 118.296875 C 199.570312 118.003906 199.328125 117.8125 199.132812 117.664062 C 197.53125 116.550781 195.882812 115.433594 194.285156 114.320312 C 193.167969 113.542969 192.101562 112.71875 190.984375 111.894531 C 190.839844 111.796875 190.5 111.699219 190.355469 111.796875 C 189.675781 112.234375 189.046875 112.671875 188.171875 113.300781 Z M 188.851562 216.304688 C 188.851562 216.304688 188.851562 216.207031 188.851562 216.160156 C 182.0625 215.285156 175.273438 214.363281 168.4375 213.492188 C 168.628906 213.683594 168.824219 213.78125 169.019531 213.832031 C 172.460938 214.753906 175.902344 215.722656 179.296875 216.644531 C 180.898438 217.078125 182.5 217.757812 184.195312 217.175781 C 184.488281 217.078125 184.828125 217.078125 185.117188 216.984375 C 186.332031 216.742188 187.589844 216.496094 188.804688 216.304688 Z M 214.457031 214.171875 C 216.25 214.316406 218.046875 214.460938 219.839844 214.558594 C 220.132812 214.558594 220.421875 214.507812 220.664062 214.363281 C 223.527344 212.570312 226.289062 210.582031 228.761719 208.300781 C 229.003906 208.109375 229.199219 207.867188 229.394531 207.625 C 224.785156 210.628906 219.644531 212.425781 214.457031 214.171875 Z M 171.636719 219.3125 L 171.636719 219.117188 C 171.636719 219.117188 171.296875 218.972656 171.101562 218.875 C 168.871094 218.050781 166.691406 217.175781 164.800781 215.671875 C 163.925781 214.996094 163.101562 214.21875 162.566406 213.296875 C 162.132812 212.570312 161.695312 212.230469 160.871094 212.132812 C 160.484375 212.132812 160.046875 211.988281 159.660156 211.9375 C 159.320312 211.890625 158.980469 211.84375 158.6875 211.84375 C 158.929688 212.230469 159.222656 212.472656 159.511719 212.667969 C 161.890625 214.414062 164.3125 216.0625 166.59375 217.953125 C 168.144531 219.261719 169.9375 218.921875 171.636719 219.261719 Z M 220.375 203.792969 C 221.972656 203.984375 229.734375 202.773438 230.460938 202.289062 C 230.460938 202.289062 230.410156 202.191406 230.363281 202.144531 C 229.199219 201.707031 228.085938 201.269531 226.921875 200.882812 C 226.773438 200.835938 226.582031 200.882812 226.386719 200.980469 C 225.609375 201.367188 224.835938 201.753906 224.058594 202.09375 C 222.894531 202.628906 221.683594 203.160156 220.324219 203.792969 Z M 138.417969 146.957031 C 137.835938 147.296875 137.300781 147.636719 136.769531 147.925781 C 134.976562 148.992188 133.230469 150.058594 131.433594 151.128906 C 130.949219 151.417969 130.804688 151.757812 131.144531 152.289062 C 131.335938 152.195312 131.53125 152.144531 131.726562 152.046875 C 133.566406 151.128906 135.460938 150.253906 137.300781 149.332031 C 138.417969 148.800781 138.613281 148.410156 138.371094 147.003906 Z M 155.101562 184.539062 C 156.167969 188.03125 157.574219 191.328125 159.171875 194.578125 C 158.882812 190.796875 158.007812 187.253906 155.101562 184.539062 Z M 176.050781 223.042969 C 176.050781 223.042969 176.050781 223.140625 176.050781 223.238281 C 179.054688 223.382812 182.113281 223.53125 185.117188 223.675781 L 185.117188 223.480469 C 183.613281 223.042969 182.113281 222.609375 180.609375 222.171875 C 180.414062 222.125 180.171875 222.171875 179.929688 222.171875 C 179.394531 222.269531 178.863281 222.367188 178.328125 222.511719 C 177.554688 222.65625 176.777344 222.851562 176 223.042969 Z M 235.019531 141.71875 C 235.019531 141.71875 234.921875 141.816406 234.875 141.863281 C 236.472656 143.660156 238.074219 145.453125 239.675781 147.246094 C 239.722656 147.246094 239.773438 147.152344 239.820312 147.152344 C 239.820312 146.957031 239.773438 146.8125 239.722656 146.617188 C 239.191406 144.09375 239.625 144.824219 237.636719 143.464844 C 236.765625 142.882812 235.890625 142.300781 235.019531 141.71875 Z M 135.703125 215.914062 C 135.703125 215.914062 135.554688 215.964844 135.554688 216.011719 C 135.363281 217.808594 135.121094 219.601562 134.976562 221.347656 C 134.976562 221.445312 135.167969 221.6875 135.265625 221.6875 C 135.75 221.6875 136.1875 221.6875 136.769531 221.6875 C 136.382812 219.746094 136.042969 217.808594 135.703125 215.867188 Z M 174.933594 176.488281 L 174.742188 176.394531 C 174.742188 176.394531 174.546875 176.730469 174.546875 176.925781 C 174.546875 177.410156 174.546875 177.945312 174.449219 178.382812 C 173.867188 181 172.265625 183.035156 170.8125 185.121094 C 170.328125 185.847656 169.746094 186.527344 169.210938 187.253906 C 169.261719 187.253906 169.308594 187.304688 169.355469 187.351562 C 172.171875 184.199219 174.835938 181 174.933594 176.441406 Z M 258.441406 216.546875 C 258.441406 216.546875 258.296875 216.546875 258.199219 216.546875 C 258.101562 217.757812 257.957031 218.972656 257.910156 220.230469 C 257.910156 220.328125 258.101562 220.523438 258.199219 220.523438 C 258.683594 220.523438 259.167969 220.523438 259.75 220.523438 C 259.265625 219.117188 258.828125 217.808594 258.394531 216.546875 Z M 246.851562 154.667969 C 246.851562 154.667969 246.949219 154.667969 246.996094 154.667969 C 246.996094 154.472656 246.996094 154.277344 246.996094 154.085938 C 246.996094 152.824219 246.949219 151.515625 246.898438 150.253906 C 246.898438 149.429688 246.609375 149.140625 245.589844 148.945312 C 246.027344 150.882812 246.414062 152.777344 246.804688 154.714844 Z M 168.824219 183.230469 C 167.515625 184.539062 164.703125 189.4375 164.554688 190.648438 C 165.960938 188.226562 167.367188 185.800781 168.824219 183.230469 Z M 249.957031 230.320312 C 249.957031 230.320312 250.101562 230.320312 250.199219 230.320312 C 250.34375 228.914062 250.441406 227.507812 250.539062 226.148438 C 250.539062 226.003906 250.34375 225.855469 250.246094 225.710938 C 250.148438 225.855469 249.957031 226.050781 249.957031 226.195312 C 249.957031 227.601562 249.957031 228.960938 249.957031 230.367188 Z M 157.523438 196.421875 C 157.523438 196.421875 157.71875 196.371094 157.816406 196.324219 C 157.234375 194.820312 156.652344 193.316406 156.070312 191.863281 C 155.972656 191.863281 155.875 191.910156 155.777344 191.960938 C 156.359375 193.464844 156.941406 194.917969 157.523438 196.421875 Z M 160.386719 209.371094 C 160.386719 209.371094 160.386719 209.222656 160.386719 209.125 C 159.078125 209.03125 157.765625 208.835938 156.457031 208.882812 C 156.457031 208.980469 156.457031 209.078125 156.457031 209.175781 C 157.765625 209.222656 159.078125 209.320312 160.386719 209.371094 Z M 170.035156 183.667969 L 170.183594 183.765625 L 172.703125 179.882812 L 172.507812 179.738281 L 170.035156 183.617188 Z M 127.457031 153.890625 C 127.457031 153.890625 127.359375 153.746094 127.3125 153.648438 C 126.777344 153.988281 126.195312 154.328125 125.664062 154.667969 C 125.664062 154.714844 125.710938 154.765625 125.761719 154.8125 C 126.34375 154.472656 127.070312 154.425781 127.457031 153.84375 Z M 156.167969 209.371094 C 156.214844 210 156.507812 210.097656 157.621094 209.949219 C 157.136719 209.757812 156.699219 209.5625 156.167969 209.371094 Z M 156.265625 196.90625 C 156.265625 196.90625 156.359375 196.859375 156.410156 196.808594 C 156.167969 196.371094 155.875 195.9375 155.632812 195.453125 C 155.632812 195.453125 155.535156 195.5 155.488281 195.546875 C 155.730469 195.984375 156.019531 196.421875 156.265625 196.90625 Z M 156.265625 196.90625 " fill-opacity="1" fill-rule="nonzero"/></g></svg>