<svg xmlns="http://www.w3.org/2000/svg" xmlns:xlink="http://www.w3.org/1999/xlink" width="500" zoomAndPan="magnify" viewBox="0 0 375 374.999991" height="500" preserveAspectRatio="xMidYMid meet" version="1.0"><defs><g/><clipPath id="271076a386"><path d="M 136 115 L 239.648438 115 L 239.648438 216.230469 L 136 216.230469 Z M 136 115 " clip-rule="nonzero"/></clipPath></defs><g clip-path="url(#271076a386)"><path fill="#457d58" d="M 154.421875 216.523438 C 154.421875 216.523438 154.285156 216.359375 154.230469 216.246094 C 153.816406 215.585938 153.734375 214.84375 153.597656 214.101562 C 153.210938 211.628906 153.238281 209.152344 153.402344 206.679688 C 153.542969 204.425781 153.734375 202.167969 153.925781 199.941406 C 153.925781 199.722656 153.898438 199.585938 153.679688 199.449219 C 153.402344 199.28125 153.15625 199.117188 152.910156 198.898438 C 152.414062 198.484375 152.222656 197.878906 152.195312 197.273438 C 152.109375 196.148438 152.054688 195.019531 151.972656 193.894531 C 151.945312 193.425781 151.972656 193.398438 151.480469 193.453125 C 149.71875 193.5625 147.988281 193.726562 146.226562 193.839844 C 143.972656 193.949219 141.71875 194.03125 139.464844 194.085938 C 139.160156 194.085938 138.886719 194.058594 138.582031 193.976562 C 138.417969 193.921875 138.226562 193.78125 138.199219 193.644531 C 138.199219 193.507812 138.335938 193.316406 138.445312 193.207031 C 138.664062 193.039062 138.941406 192.929688 139.1875 192.792969 C 139.1875 192.820312 139.242188 192.875 139.242188 192.902344 C 139.050781 193.039062 138.886719 193.152344 138.691406 193.289062 C 138.691406 193.289062 138.691406 193.34375 138.691406 193.371094 C 138.832031 193.371094 138.941406 193.371094 139.078125 193.371094 C 140.371094 193.207031 141.691406 193.011719 142.984375 192.847656 C 145.347656 192.546875 147.738281 192.242188 150.105469 191.941406 C 150.515625 191.886719 150.929688 191.832031 151.339844 191.804688 C 151.617188 191.804688 151.726562 191.695312 151.699219 191.390625 C 151.5625 190.152344 151.453125 188.917969 151.3125 187.679688 C 151.3125 187.429688 151.175781 187.347656 150.929688 187.320312 C 148.839844 187.183594 146.722656 187.019531 144.632812 186.882812 C 142.707031 186.773438 140.78125 186.660156 138.859375 186.550781 C 138.28125 186.523438 137.730469 186.359375 137.152344 186.25 C 136.933594 186.195312 136.742188 186.113281 136.546875 185.972656 C 136.109375 185.726562 135.917969 185.257812 136.054688 184.847656 C 136.191406 184.40625 136.546875 184.160156 137.097656 184.1875 C 137.839844 184.242188 138.582031 184.296875 139.324219 184.324219 C 142.074219 184.40625 144.851562 184.460938 147.601562 184.515625 C 148.621094 184.542969 149.609375 184.625 150.625 184.683594 C 151.039062 184.683594 151.066406 184.683594 151.011719 184.269531 C 150.542969 180.171875 150.078125 176.074219 149.582031 171.980469 C 149.113281 168.074219 148.535156 164.167969 148.097656 160.265625 C 147.90625 158.617188 147.933594 156.9375 147.847656 155.261719 C 147.820312 154.1875 147.792969 153.117188 147.765625 152.042969 C 147.765625 151.578125 147.738281 151.578125 147.300781 151.714844 C 143.917969 152.867188 140.507812 154.023438 137.125 155.179688 C 136.933594 155.234375 136.714844 155.316406 136.519531 155.316406 C 136.355469 155.316406 136.136719 155.207031 136.082031 155.070312 C 136.027344 154.957031 136.082031 154.683594 136.21875 154.574219 C 136.4375 154.355469 136.714844 154.160156 136.988281 154.050781 C 139.546875 152.867188 142.101562 151.6875 144.660156 150.53125 C 145.511719 150.148438 146.363281 149.816406 147.246094 149.460938 C 147.519531 149.347656 147.628906 149.210938 147.574219 148.910156 C 147.300781 146.160156 147.050781 143.410156 146.804688 140.660156 C 146.613281 138.378906 146.445312 136.097656 146.859375 133.8125 C 146.914062 133.457031 147.023438 133.070312 147.191406 132.742188 C 147.492188 132.191406 148.097656 132.082031 148.535156 132.523438 C 148.839844 132.851562 149.113281 133.238281 149.308594 133.648438 C 149.882812 134.777344 150.078125 136.042969 150.378906 137.25 C 150.847656 139.230469 151.257812 141.210938 151.726562 143.191406 C 151.726562 143.300781 151.78125 143.382812 151.835938 143.601562 C 152.277344 143.191406 152.660156 142.832031 153.019531 142.421875 C 153.101562 142.335938 153.046875 142.089844 153.019531 141.953125 C 152.828125 138.816406 152.605469 135.65625 152.441406 132.523438 C 152.359375 130.953125 152.386719 129.359375 152.386719 127.792969 C 152.386719 127.574219 152.386719 127.324219 152.6875 127.269531 C 152.992188 127.214844 153.183594 127.433594 153.238281 127.683594 C 153.402344 128.34375 153.597656 129.03125 153.679688 129.71875 C 154.089844 133.265625 154.503906 136.839844 154.914062 140.414062 C 154.914062 140.523438 154.972656 140.632812 155 140.796875 C 155.136719 140.714844 155.21875 140.660156 155.300781 140.605469 C 156.785156 139.476562 158.296875 138.351562 159.808594 137.25 C 160.085938 137.03125 160.222656 136.8125 160.25 136.453125 C 160.523438 133.980469 160.773438 131.53125 161.101562 129.058594 C 161.265625 127.820312 161.542969 126.582031 162.066406 125.425781 C 162.175781 125.152344 162.367188 124.878906 162.585938 124.683594 C 163.191406 124.136719 164.128906 124.410156 164.320312 125.207031 C 164.402344 125.566406 164.402344 125.976562 164.375 126.363281 C 164.15625 128.917969 163.933594 131.476562 163.6875 134.007812 C 163.6875 134.144531 163.6875 134.28125 163.6875 134.5 C 163.851562 134.390625 164.015625 134.335938 164.128906 134.253906 C 165.96875 133.015625 167.757812 131.640625 169.679688 130.570312 C 173.53125 128.371094 177.078125 125.730469 180.734375 123.253906 C 181.230469 122.925781 181.753906 122.59375 182.246094 122.292969 C 182.355469 122.238281 182.46875 122.15625 182.605469 122.074219 C 182.496094 121.9375 182.382812 121.851562 182.300781 121.742188 C 181.558594 120.863281 180.789062 119.984375 180.046875 119.074219 C 179.964844 118.964844 179.9375 118.828125 179.882812 118.691406 C 180.019531 118.691406 180.15625 118.691406 180.292969 118.746094 C 181.585938 119.242188 182.742188 119.957031 183.84375 120.726562 C 184.144531 120.945312 184.335938 120.917969 184.640625 120.726562 C 185.160156 120.339844 185.710938 120.039062 186.261719 119.734375 C 186.839844 119.40625 187.417969 119.101562 187.992188 118.773438 C 188.792969 118.304688 189.5625 118.304688 190.359375 118.773438 C 190.992188 119.132812 191.625 119.460938 192.226562 119.820312 C 192.914062 120.230469 193.574219 120.726562 194.261719 121.164062 C 194.675781 121.441406 195.058594 121.6875 195.472656 121.964844 C 196.378906 122.511719 197.261719 123.0625 198.195312 123.613281 C 198.085938 123.476562 197.976562 123.339844 197.863281 123.199219 C 196.574219 121.578125 195.28125 119.984375 194.042969 118.359375 C 193.574219 117.757812 193.21875 117.070312 192.832031 116.4375 C 192.722656 116.269531 192.640625 116.023438 192.640625 115.832031 C 192.640625 115.613281 192.722656 115.308594 192.886719 115.199219 C 193.027344 115.089844 193.355469 115.144531 193.519531 115.253906 C 193.960938 115.554688 194.371094 115.886719 194.757812 116.242188 C 196.601562 117.894531 198.113281 119.789062 199.625 121.714844 C 201.164062 123.695312 202.703125 125.703125 204.242188 127.683594 C 204.492188 127.984375 204.792969 128.257812 205.125 128.480469 C 206.277344 129.222656 207.488281 129.882812 208.644531 130.625 C 210.320312 131.695312 211.96875 132.851562 213.621094 133.953125 C 214.199219 134.335938 214.773438 134.722656 215.351562 135.105469 C 215.378906 135.105469 215.40625 135.078125 215.460938 135.050781 C 215.460938 134.886719 215.433594 134.695312 215.40625 134.527344 C 215.105469 132.246094 214.773438 129.964844 214.472656 127.683594 C 214.417969 127.351562 214.472656 126.96875 214.527344 126.636719 C 214.664062 126.03125 215.242188 125.867188 215.683594 126.253906 C 215.957031 126.5 216.203125 126.800781 216.34375 127.160156 C 216.835938 128.480469 217.332031 129.773438 217.691406 131.121094 C 218.238281 133.210938 218.679688 135.355469 219.203125 137.472656 C 219.257812 137.71875 219.449219 137.964844 219.640625 138.160156 C 220.027344 138.488281 220.46875 138.761719 220.933594 139.121094 C 220.933594 138.875 220.960938 138.734375 220.960938 138.597656 C 221.015625 137.113281 220.988281 135.601562 221.097656 134.117188 C 221.183594 132.714844 221.484375 131.339844 221.953125 130.019531 C 221.980469 129.910156 222.089844 129.855469 222.144531 129.746094 C 222.199219 129.828125 222.253906 129.9375 222.28125 130.019531 C 222.472656 131.449219 222.722656 132.90625 222.832031 134.335938 C 222.96875 136.289062 222.996094 138.242188 223.050781 140.191406 C 223.050781 140.550781 223.160156 140.769531 223.4375 140.992188 C 224.34375 141.789062 225.25 142.585938 226.160156 143.410156 C 226.242188 143.492188 226.351562 143.574219 226.488281 143.710938 C 226.542969 143.492188 226.597656 143.328125 226.625 143.164062 C 227.257812 140.414062 227.890625 137.636719 228.578125 134.886719 C 228.714844 134.28125 229.074219 133.757812 229.320312 133.179688 C 229.375 133.042969 229.484375 132.933594 229.59375 132.824219 C 230.171875 132.164062 230.96875 132.246094 231.246094 133.097656 C 231.492188 133.894531 231.601562 134.75 231.683594 135.601562 C 231.878906 137.71875 231.683594 139.835938 231.4375 141.925781 C 230.859375 146.765625 230.558594 151.605469 230.476562 156.441406 C 230.476562 156.773438 230.613281 156.964844 230.859375 157.128906 C 232.398438 158.3125 233.96875 159.496094 235.507812 160.707031 C 236.003906 161.089844 236.441406 161.53125 236.882812 161.96875 C 237.046875 162.136719 237.183594 162.300781 237.265625 162.519531 C 237.40625 162.796875 237.378906 163.070312 237.128906 163.289062 C 236.910156 163.511719 236.632812 163.566406 236.359375 163.398438 C 235.863281 163.070312 235.371094 162.738281 234.875 162.382812 C 233.5 161.421875 232.097656 160.429688 230.722656 159.46875 C 230.640625 159.414062 230.558594 159.386719 230.449219 159.304688 C 230.421875 159.414062 230.394531 159.496094 230.367188 159.578125 C 229.980469 162.519531 229.625 165.460938 229.238281 168.402344 C 228.851562 171.375 228.46875 174.34375 228.164062 177.339844 C 228.109375 177.890625 228.304688 178.496094 228.441406 179.074219 C 228.796875 180.777344 229.210938 182.480469 229.566406 184.1875 C 229.625 184.460938 229.734375 184.515625 229.980469 184.515625 C 231.464844 184.460938 232.949219 184.40625 234.460938 184.378906 C 234.847656 184.378906 235.261719 184.378906 235.644531 184.488281 C 236.359375 184.683594 236.578125 185.425781 236.003906 185.917969 C 235.671875 186.195312 235.261719 186.441406 234.847656 186.523438 C 233.445312 186.800781 232.042969 186.992188 230.640625 187.183594 C 230.449219 187.210938 230.253906 187.238281 230.035156 187.238281 C 230.089844 187.542969 230.144531 187.816406 230.199219 188.089844 C 230.144531 188.089844 230.117188 188.117188 230.0625 188.144531 C 229.953125 187.953125 229.816406 187.789062 229.734375 187.597656 C 229.625 187.347656 229.484375 187.265625 229.210938 187.292969 C 228.660156 187.320312 228.136719 187.347656 227.589844 187.347656 C 227.230469 187.347656 227.09375 187.460938 227.066406 187.816406 C 227.011719 188.695312 226.902344 189.578125 226.789062 190.457031 C 226.761719 190.785156 226.875 190.867188 227.175781 190.894531 C 228.414062 191.007812 229.652344 191.089844 230.859375 191.226562 C 232.648438 191.445312 234.433594 191.695312 236.25 191.96875 C 237.183594 192.105469 238.121094 192.269531 239.054688 192.4375 C 239.136719 192.4375 239.21875 192.519531 239.300781 192.574219 C 239.21875 192.628906 239.164062 192.738281 239.082031 192.738281 C 236.992188 193.011719 234.902344 193.316406 232.785156 193.480469 C 230.859375 193.644531 228.9375 193.671875 227.011719 193.753906 C 226.542969 193.753906 226.542969 193.753906 226.515625 194.25 C 226.460938 195.269531 226.378906 196.257812 226.324219 197.273438 C 226.269531 198.648438 225.5 199.363281 224.152344 199.859375 C 223.988281 199.914062 223.820312 199.941406 223.628906 199.96875 C 223.132812 200.078125 223.132812 200.078125 223.132812 200.601562 C 223.132812 202.28125 223.132812 203.929688 223.078125 205.605469 C 223.078125 206.074219 222.96875 206.570312 222.832031 207.007812 C 222.777344 207.257812 222.554688 207.476562 222.363281 207.640625 C 222.253906 207.722656 222.007812 207.722656 221.898438 207.640625 C 221.785156 207.558594 221.675781 207.339844 221.703125 207.203125 C 222.117188 205.027344 221.703125 202.828125 221.757812 200.65625 C 221.757812 200.410156 221.757812 200.21875 221.402344 200.273438 C 217.828125 200.683594 214.253906 200.355469 210.707031 200.164062 C 209.769531 200.105469 208.835938 200.050781 207.902344 200.078125 C 206.140625 200.105469 204.410156 199.96875 202.648438 199.832031 C 200.53125 199.640625 198.414062 199.585938 196.269531 199.449219 C 194.730469 199.335938 193.191406 199.199219 191.679688 199.089844 C 189.175781 198.925781 186.675781 199.089844 184.171875 199.28125 C 182.605469 199.417969 181.066406 199.476562 179.496094 199.585938 C 177.519531 199.722656 175.566406 199.886719 173.585938 200.023438 C 173.117188 200.050781 172.625 200.105469 172.128906 200.078125 C 170.011719 199.996094 167.867188 200.164062 165.75 200.300781 C 164.101562 200.410156 162.449219 200.492188 160.773438 200.492188 C 159.425781 200.492188 158.078125 200.355469 156.730469 200.246094 C 156.429688 200.246094 156.316406 200.300781 156.289062 200.601562 C 156.152344 203.078125 155.988281 205.550781 155.851562 208.027344 C 155.714844 210.636719 155.300781 213.222656 154.695312 215.753906 C 154.640625 216 154.585938 216.273438 154.503906 216.550781 C 154.503906 216.578125 154.449219 216.605469 154.394531 216.660156 Z M 201.742188 185.5625 C 201.742188 185.5625 201.742188 185.617188 201.769531 185.644531 C 202.871094 185.5625 203.996094 185.480469 205.097656 185.425781 C 210.347656 185.175781 215.628906 184.929688 220.878906 184.683594 C 221.210938 184.683594 221.292969 184.570312 221.292969 184.242188 C 221.238281 175.664062 221.042969 167.113281 221.265625 158.53125 C 221.265625 158.175781 221.210938 157.816406 221.097656 157.460938 C 220.523438 155.453125 219.945312 153.472656 219.367188 151.464844 C 219.257812 151.082031 219.09375 150.835938 218.789062 150.585938 C 216.480469 148.773438 214.144531 146.957031 211.859375 145.085938 C 208.339844 142.226562 204.847656 139.3125 201.300781 136.480469 C 198.222656 134.007812 195.058594 131.640625 191.953125 129.195312 C 191.679688 128.976562 191.457031 128.976562 191.183594 129.167969 C 188.875 130.515625 186.589844 131.917969 184.226562 133.210938 C 177.1875 137.003906 170.148438 140.769531 163.109375 144.539062 C 162.699219 144.757812 162.53125 145.03125 162.476562 145.472656 C 162.3125 147.066406 162.09375 148.632812 161.898438 150.230469 C 161.433594 153.914062 160.9375 157.570312 160.46875 161.226562 C 159.949219 165.460938 159.425781 169.667969 158.929688 173.902344 C 158.792969 175.140625 158.574219 176.378906 158.738281 177.671875 C 158.902344 178.988281 158.984375 180.335938 159.121094 181.65625 C 159.234375 182.675781 159.34375 183.71875 159.453125 184.738281 C 159.480469 185.011719 159.5625 185.175781 159.921875 185.175781 C 161.128906 185.175781 162.3125 185.257812 163.523438 185.285156 C 165.75 185.371094 167.976562 185.425781 170.175781 185.480469 C 170.808594 185.480469 171.359375 185.257812 171.910156 185.066406 C 171.796875 184.957031 171.6875 184.902344 171.578125 184.820312 C 170.671875 184.1875 169.707031 183.609375 168.828125 182.921875 C 167.839844 182.125 167.125 181.136719 166.820312 179.898438 C 166.574219 178.960938 166.628906 178.109375 167.425781 177.394531 C 167.453125 177.394531 167.480469 177.3125 167.507812 177.257812 C 167.179688 177.121094 166.847656 177.011719 166.519531 176.84375 C 165.941406 176.542969 165.640625 175.992188 165.695312 175.414062 C 165.75 174.867188 166.160156 174.425781 166.820312 174.261719 C 167.371094 174.125 167.921875 174.011719 168.472656 173.847656 C 169.078125 173.683594 169.679688 173.492188 170.3125 173.296875 C 169.902344 172.832031 169.488281 172.417969 169.132812 171.980469 C 168.855469 171.675781 168.582031 171.347656 168.417969 170.988281 C 167.5625 169.230469 167.207031 167.332031 167.234375 165.378906 C 167.234375 164.03125 167.234375 162.710938 167.261719 161.363281 C 167.261719 161.226562 167.34375 161.035156 167.453125 160.980469 C 167.5625 160.925781 167.8125 160.953125 167.894531 161.035156 C 168.113281 161.226562 168.363281 161.449219 168.472656 161.722656 C 168.800781 162.4375 169.296875 162.960938 169.847656 163.480469 C 170.644531 164.253906 171.222656 165.132812 171.578125 166.175781 C 171.769531 166.808594 171.964844 167.441406 172.15625 168.128906 C 172.210938 167.992188 172.265625 167.882812 172.292969 167.800781 C 173.226562 164.941406 174.628906 162.328125 176.804688 160.210938 C 177.601562 159.441406 178.480469 158.78125 179.578125 158.476562 C 179.964844 158.367188 180.324219 158.175781 180.734375 158.039062 C 180.925781 157.984375 181.175781 157.902344 181.339844 157.957031 C 181.613281 158.066406 181.503906 158.339844 181.476562 158.589844 C 181.421875 158.945312 181.339844 159.277344 181.3125 159.632812 C 181.203125 160.816406 181.039062 161.96875 180.488281 163.042969 C 179.578125 164.800781 178.34375 166.34375 176.886719 167.660156 C 175.648438 168.789062 174.4375 169.945312 173.421875 171.320312 C 173.257812 171.539062 173.089844 171.785156 173.171875 172.144531 C 173.421875 172.035156 173.667969 171.953125 173.886719 171.867188 C 177.957031 170.355469 182.164062 169.503906 186.480469 169.117188 C 193.464844 168.515625 200.421875 168.816406 207.324219 170.164062 C 209.277344 170.550781 211.144531 171.125 212.90625 172.089844 C 213.429688 172.363281 213.921875 172.75 214.335938 173.160156 C 214.96875 173.820312 214.941406 174.753906 214.335938 175.414062 C 214.058594 175.691406 213.730469 175.882812 213.429688 176.128906 C 213.316406 176.214844 213.179688 176.324219 213.125 176.460938 C 212.824219 177.039062 212.601562 177.644531 212.273438 178.191406 C 211.558594 179.375 210.511719 180.253906 209.46875 181.136719 C 209.359375 181.21875 209.277344 181.328125 209.136719 181.4375 C 211.253906 181.765625 213.289062 182.097656 215.324219 182.425781 C 215.324219 182.480469 215.324219 182.507812 215.324219 182.566406 C 215.214844 182.59375 215.078125 182.675781 214.96875 182.675781 C 214.582031 182.730469 214.171875 182.757812 213.785156 182.785156 C 211.613281 182.867188 209.441406 182.949219 207.269531 183.03125 C 207.019531 183.03125 206.746094 183.113281 206.554688 183.253906 C 205.207031 184.078125 203.777344 184.792969 202.292969 185.371094 C 202.125 185.425781 201.960938 185.507812 201.796875 185.589844 Z M 185.078125 191.664062 C 182.632812 191.777344 178.121094 191.914062 173.613281 192.132812 C 170.203125 192.296875 166.820312 192.519531 163.414062 192.710938 C 161.351562 192.820312 159.316406 192.984375 157.253906 193.097656 C 157.03125 193.097656 156.921875 193.179688 156.894531 193.425781 C 156.839844 194.140625 156.785156 194.882812 156.703125 195.597656 C 156.703125 195.84375 156.757812 195.929688 157.03125 195.898438 C 159.371094 195.460938 161.761719 195.40625 164.128906 195.296875 C 166.960938 195.183594 169.792969 194.882812 172.652344 194.992188 C 172.84375 194.992188 173.0625 194.992188 173.257812 194.964844 C 175.757812 194.800781 178.261719 194.636719 180.789062 194.441406 C 183.070312 194.277344 185.355469 194.25 187.664062 194.46875 C 188.734375 194.582031 189.835938 194.554688 190.9375 194.46875 C 192.695312 194.359375 194.484375 194.222656 196.242188 194.332031 C 198.441406 194.5 200.640625 194.582031 202.8125 194.691406 C 204.214844 194.773438 205.617188 194.910156 207.019531 194.964844 C 208.644531 195.046875 210.292969 195.074219 211.914062 195.128906 C 212.851562 195.15625 213.757812 195.242188 214.691406 195.269531 C 216.917969 195.324219 219.148438 195.40625 221.320312 195.816406 C 221.566406 195.871094 221.648438 195.789062 221.648438 195.542969 C 221.648438 194.964844 221.59375 194.386719 221.59375 193.8125 C 221.59375 193.480469 221.457031 193.371094 221.125 193.371094 C 214.914062 192.984375 208.726562 192.601562 202.511719 192.214844 C 197.398438 191.886719 192.253906 191.636719 185.050781 191.636719 Z M 162.890625 142.0625 C 163.109375 141.953125 163.246094 141.898438 163.355469 141.84375 C 167.675781 139.53125 171.992188 137.222656 176.308594 134.886719 C 180.789062 132.464844 185.300781 130.101562 190.054688 128.203125 C 190.136719 128.175781 190.222656 128.121094 190.332031 128.039062 C 190.25 127.984375 190.195312 127.957031 190.136719 127.929688 C 188.929688 126.996094 187.691406 126.058594 186.480469 125.097656 C 186.261719 124.933594 186.097656 124.933594 185.875 125.097656 C 184.53125 126.085938 183.183594 127.078125 181.808594 128.011719 C 179.746094 129.441406 177.628906 130.816406 175.457031 132.054688 C 171.222656 134.5 167.34375 137.527344 163.300781 140.25 C 163.191406 140.304688 163.082031 140.441406 163.054688 140.550781 C 162.972656 141.019531 162.917969 141.484375 162.835938 142.089844 Z M 208.753906 173.105469 L 208.753906 173.023438 C 208.753906 173.023438 208.5625 172.96875 208.449219 172.941406 C 206.609375 172.527344 204.710938 172.335938 202.8125 172.226562 C 199.925781 172.0625 197.011719 171.921875 194.125 171.839844 C 192.53125 171.785156 190.910156 171.839844 189.285156 171.839844 C 189.535156 171.867188 189.78125 171.867188 190.027344 171.894531 C 192.3125 172.117188 194.566406 172.308594 196.820312 172.554688 C 198.03125 172.695312 199.265625 172.914062 200.476562 173.132812 C 201.878906 173.410156 203.253906 173.710938 204.65625 174.039062 C 204.765625 174.039062 204.847656 174.152344 204.929688 174.207031 C 204.929688 174.234375 204.902344 174.261719 204.875 174.289062 C 204.273438 174.234375 203.640625 174.179688 203.035156 174.125 C 201.90625 174.011719 200.78125 173.902344 199.625 173.820312 C 197.835938 173.710938 196.050781 173.65625 194.261719 173.574219 C 189.890625 173.382812 185.519531 173.214844 181.148438 173.574219 C 178.671875 173.792969 176.199219 174.152344 173.75 174.5625 C 173.667969 174.5625 173.558594 174.617188 173.476562 174.671875 C 174 174.894531 174.464844 175.140625 175.042969 175.058594 C 176.171875 174.867188 177.324219 174.671875 178.453125 174.5625 C 179.828125 174.425781 181.230469 174.34375 182.605469 174.316406 C 184.28125 174.289062 185.988281 174.316406 187.664062 174.34375 C 187.71875 174.34375 187.746094 174.398438 187.800781 174.425781 C 187.800781 174.453125 187.800781 174.507812 187.800781 174.535156 L 177.957031 175.46875 C 177.957031 175.46875 177.957031 175.527344 177.957031 175.554688 C 178.09375 175.554688 178.207031 175.609375 178.34375 175.609375 C 180.433594 175.71875 182.550781 175.773438 184.640625 175.664062 C 186.261719 175.582031 187.910156 175.664062 189.535156 175.664062 C 189.617188 175.664062 189.753906 175.664062 189.753906 175.691406 C 189.835938 176.074219 190.136719 175.910156 190.332031 175.910156 C 192.886719 175.800781 195.445312 175.664062 198.003906 175.527344 C 199.210938 175.46875 200.449219 175.46875 201.660156 175.277344 C 203.417969 175.003906 205.152344 174.589844 206.828125 173.929688 C 207.460938 173.683594 208.066406 173.410156 208.699219 173.160156 Z M 155.164062 184.929688 C 155.164062 184.929688 155.246094 184.929688 155.273438 184.929688 C 155.300781 184.792969 155.355469 184.65625 155.355469 184.515625 C 155.714844 180.941406 156.070312 177.394531 156.429688 173.820312 C 156.484375 173.214844 156.539062 172.582031 156.484375 171.953125 C 156.316406 170.519531 156.015625 169.089844 155.851562 167.660156 C 155.136719 161.640625 154.449219 155.589844 153.734375 149.570312 C 153.734375 149.460938 153.679688 149.320312 153.652344 149.15625 C 153.402344 149.265625 153.183594 149.375 152.964844 149.460938 C 152.660156 149.570312 152.550781 149.734375 152.578125 150.0625 C 152.660156 151.082031 152.769531 152.070312 152.796875 153.089844 C 152.910156 159.414062 153.347656 165.710938 154.007812 171.980469 C 154.199219 173.710938 154.421875 175.441406 154.558594 177.175781 C 154.75 179.648438 154.886719 182.152344 155.054688 184.625 C 155.054688 184.738281 155.109375 184.847656 155.164062 184.957031 Z M 193.878906 127.683594 C 202.265625 133.648438 210.15625 140.082031 217.992188 146.601562 C 217.910156 146.40625 217.828125 146.242188 217.691406 146.105469 C 214.773438 142.804688 211.886719 139.503906 208.972656 136.207031 C 208.617188 135.792969 208.230469 135.382812 207.761719 135.078125 C 205.8125 133.8125 203.804688 132.632812 201.851562 131.367188 C 199.707031 129.964844 197.589844 128.535156 195.445312 127.105469 C 195.335938 127.023438 195.144531 126.941406 195.058594 126.96875 C 194.675781 127.160156 194.289062 127.378906 193.851562 127.628906 Z M 199.101562 189.246094 C 199.101562 189.246094 199.351562 189.246094 199.460938 189.246094 C 202.730469 189.410156 206.03125 189.578125 209.304688 189.742188 C 213.207031 189.933594 217.113281 190.125 221.015625 190.320312 C 221.292969 190.320312 221.402344 190.261719 221.375 189.960938 C 221.347656 189.273438 221.320312 188.585938 221.320312 187.871094 C 221.320312 187.347656 221.320312 187.320312 220.769531 187.347656 C 215.488281 187.542969 210.210938 187.734375 204.929688 187.925781 C 204.820312 187.925781 204.683594 187.925781 204.574219 187.925781 C 204.464844 187.925781 204.382812 187.925781 204.273438 187.953125 C 205.757812 188.285156 207.269531 188.3125 208.753906 188.585938 C 208.753906 188.640625 208.753906 188.722656 208.753906 188.777344 C 205.5625 189.082031 202.347656 189.054688 199.128906 189.164062 Z M 157.308594 164.085938 C 157.308594 164.085938 157.390625 164.085938 157.445312 164.085938 C 158.078125 158.230469 158.738281 152.402344 159.371094 146.460938 C 159.148438 146.542969 159.039062 146.601562 158.957031 146.628906 C 157.996094 147.09375 157.03125 147.5625 156.070312 148.003906 C 155.796875 148.140625 155.714844 148.277344 155.742188 148.605469 C 156.207031 153.199219 156.675781 157.761719 157.144531 162.355469 C 157.199219 162.933594 157.28125 163.511719 157.335938 164.085938 Z M 172.707031 188.367188 C 172.707031 188.367188 172.707031 188.285156 172.707031 188.257812 C 168.390625 188.117188 164.101562 187.980469 159.753906 187.871094 C 159.867188 188.804688 159.949219 189.6875 160.058594 190.566406 C 160.03125 190.566406 159.976562 190.566406 159.949219 190.59375 C 159.894531 190.511719 159.808594 190.429688 159.808594 190.347656 C 159.671875 189.605469 159.507812 188.859375 159.371094 188.117188 C 159.34375 187.925781 159.261719 187.84375 159.066406 187.816406 C 158.628906 187.816406 158.1875 187.789062 157.777344 187.761719 C 157.527344 187.761719 157.445312 187.816406 157.417969 188.0625 C 157.335938 189 157.253906 189.933594 157.144531 190.867188 C 157.117188 191.144531 157.199219 191.226562 157.472656 191.199219 C 157.886719 191.144531 158.324219 191.117188 158.738281 191.0625 C 159.207031 191.007812 159.671875 191.007812 160.113281 190.894531 C 161.238281 190.59375 162.339844 190.207031 163.496094 189.933594 C 166.160156 189.246094 168.910156 188.832031 171.660156 188.53125 C 172.046875 188.476562 172.429688 188.421875 172.789062 188.394531 Z M 179.691406 179.019531 C 179.910156 179.019531 180.128906 179.019531 180.351562 179.019531 C 181.835938 179.15625 183.292969 179.320312 184.777344 179.457031 C 188.433594 179.789062 192.089844 180.089844 195.71875 180.390625 C 196.105469 180.421875 196.488281 180.476562 196.847656 180.390625 C 199.816406 179.761719 202.785156 179.046875 205.644531 178 C 205.757812 177.972656 205.867188 177.917969 205.976562 177.863281 C 205.976562 177.835938 205.976562 177.78125 205.976562 177.753906 C 199.15625 178.386719 192.339844 178.550781 185.492188 178.386719 C 185.492188 178.441406 185.492188 178.496094 185.492188 178.550781 C 189.421875 178.6875 193.382812 178.796875 197.316406 178.933594 L 197.316406 179.019531 C 191.429688 179.539062 185.574219 179.183594 179.691406 179.019531 Z M 222.96875 164.390625 C 222.96875 164.390625 222.914062 164.390625 222.886719 164.390625 C 222.886719 164.582031 222.886719 164.746094 222.886719 164.941406 C 222.886719 171.375 222.886719 177.78125 222.886719 184.214844 C 222.886719 184.269531 222.886719 184.324219 222.886719 184.351562 C 222.941406 184.433594 223.050781 184.597656 223.105469 184.570312 C 223.214844 184.570312 223.355469 184.460938 223.382812 184.351562 C 223.4375 184.214844 223.382812 184.023438 223.410156 183.855469 C 223.601562 181.328125 223.738281 178.769531 223.957031 176.242188 C 224.125 174.425781 224.34375 172.582031 224.507812 170.769531 C 224.535156 170.4375 224.507812 170.109375 224.425781 169.804688 C 223.988281 168.074219 223.492188 166.371094 223.023438 164.636719 C 223.023438 164.554688 222.941406 164.445312 222.914062 164.363281 Z M 190.027344 183.910156 C 190.027344 183.910156 190.027344 184.023438 190.027344 184.078125 C 191.019531 184.214844 192.007812 184.433594 193.027344 184.488281 C 194.785156 184.542969 196.546875 184.488281 198.304688 184.488281 C 198.691406 184.488281 199.101562 184.488281 199.460938 184.324219 C 200.449219 183.96875 201.382812 183.554688 202.375 183.140625 C 202.457031 183.113281 202.511719 183.058594 202.648438 182.949219 C 202.484375 182.949219 202.429688 182.894531 202.375 182.894531 C 200.367188 182.785156 198.386719 182.675781 196.378906 182.566406 C 196.132812 182.566406 195.886719 182.566406 195.636719 182.621094 C 194.234375 182.921875 192.804688 183.253906 191.402344 183.554688 C 190.964844 183.664062 190.496094 183.773438 190.054688 183.855469 Z M 225.058594 164.058594 C 225.058594 164.058594 225.113281 164.058594 225.167969 164.058594 C 225.167969 163.976562 225.222656 163.894531 225.222656 163.785156 C 225.359375 161.199219 225.472656 158.617188 225.582031 156.058594 C 225.582031 155.894531 225.472656 155.644531 225.332031 155.535156 C 224.730469 155.070312 224.097656 154.601562 223.464844 154.160156 C 223.382812 154.105469 223.300781 154.078125 223.1875 154.023438 C 223.132812 154.765625 223.105469 155.453125 223.269531 156.140625 C 223.738281 158.121094 224.179688 160.128906 224.617188 162.109375 C 224.757812 162.765625 224.921875 163.425781 225.085938 164.085938 Z M 225.664062 152.238281 C 225.664062 152.238281 225.71875 152.070312 225.71875 152.042969 C 225.855469 150.53125 225.992188 148.992188 226.132812 147.480469 C 226.132812 147.230469 226.046875 147.09375 225.855469 146.984375 C 225.058594 146.488281 224.261719 146.023438 223.4375 145.527344 C 223.382812 145.5 223.300781 145.5 223.214844 145.472656 C 223.214844 145.582031 223.1875 145.664062 223.1875 145.746094 C 223.1875 146.929688 223.1875 148.113281 223.1875 149.292969 C 223.1875 149.460938 223.300781 149.652344 223.410156 149.789062 C 224.042969 150.503906 224.703125 151.21875 225.332031 151.933594 C 225.417969 152.015625 225.5 152.097656 225.636719 152.238281 Z M 187.882812 123.613281 C 188.019531 123.695312 188.078125 123.695312 188.132812 123.75 C 189.671875 124.824219 191.183594 125.894531 192.722656 126.941406 C 192.804688 126.996094 192.914062 127.050781 192.96875 127.023438 C 193.464844 126.859375 193.960938 126.664062 194.566406 126.472656 C 194.34375 126.308594 194.207031 126.199219 194.097656 126.113281 C 193.191406 125.484375 192.253906 124.851562 191.347656 124.21875 C 190.714844 123.777344 190.109375 123.308594 189.480469 122.84375 C 189.394531 122.789062 189.203125 122.734375 189.121094 122.789062 C 188.734375 123.035156 188.378906 123.28125 187.882812 123.640625 Z M 188.269531 182.042969 C 188.269531 182.042969 188.269531 181.988281 188.269531 181.960938 C 184.417969 181.464844 180.570312 180.941406 176.691406 180.449219 C 176.804688 180.558594 176.914062 180.613281 177.023438 180.640625 C 178.976562 181.164062 180.925781 181.710938 182.851562 182.234375 C 183.757812 182.480469 184.667969 182.867188 185.628906 182.539062 C 185.792969 182.480469 185.988281 182.480469 186.152344 182.425781 C 186.839844 182.289062 187.554688 182.152344 188.242188 182.042969 Z M 202.785156 180.832031 C 203.804688 180.914062 204.820312 180.996094 205.839844 181.050781 C 206.003906 181.050781 206.167969 181.023438 206.304688 180.941406 C 207.929688 179.925781 209.496094 178.796875 210.898438 177.503906 C 211.035156 177.394531 211.144531 177.257812 211.253906 177.121094 C 208.644531 178.824219 205.730469 179.84375 202.785156 180.832031 Z M 178.507812 183.746094 L 178.507812 183.636719 C 178.507812 183.636719 178.316406 183.554688 178.207031 183.5 C 176.941406 183.03125 175.703125 182.539062 174.628906 181.683594 C 174.136719 181.300781 173.667969 180.859375 173.367188 180.335938 C 173.117188 179.925781 172.871094 179.734375 172.402344 179.675781 C 172.183594 179.675781 171.9375 179.59375 171.714844 179.566406 C 171.523438 179.539062 171.332031 179.511719 171.167969 179.511719 C 171.304688 179.734375 171.46875 179.871094 171.632812 179.980469 C 172.980469 180.96875 174.355469 181.90625 175.648438 182.976562 C 176.527344 183.71875 177.546875 183.527344 178.507812 183.71875 Z M 206.140625 174.949219 C 207.046875 175.058594 211.449219 174.371094 211.859375 174.097656 C 211.859375 174.097656 211.832031 174.039062 211.804688 174.011719 C 211.144531 173.765625 210.511719 173.519531 209.851562 173.296875 C 209.769531 173.269531 209.660156 173.296875 209.550781 173.351562 C 209.109375 173.574219 208.671875 173.792969 208.230469 173.984375 C 207.570312 174.289062 206.882812 174.589844 206.113281 174.949219 Z M 159.671875 142.722656 C 159.34375 142.914062 159.039062 143.109375 158.738281 143.273438 C 157.71875 143.878906 156.730469 144.484375 155.714844 145.085938 C 155.4375 145.253906 155.355469 145.445312 155.546875 145.746094 C 155.660156 145.691406 155.769531 145.664062 155.878906 145.609375 C 156.921875 145.085938 157.996094 144.59375 159.039062 144.070312 C 159.671875 143.769531 159.78125 143.546875 159.644531 142.75 Z M 169.132812 164.03125 C 169.738281 166.011719 170.535156 167.882812 171.441406 169.722656 C 171.277344 167.578125 170.78125 165.570312 169.132812 164.03125 Z M 181.011719 185.863281 C 181.011719 185.863281 181.011719 185.917969 181.011719 185.972656 C 182.714844 186.058594 184.445312 186.140625 186.152344 186.222656 L 186.152344 186.113281 C 185.300781 185.863281 184.445312 185.617188 183.59375 185.371094 C 183.484375 185.34375 183.347656 185.371094 183.210938 185.371094 C 182.90625 185.425781 182.605469 185.480469 182.300781 185.5625 C 181.863281 185.644531 181.421875 185.753906 180.980469 185.863281 Z M 214.445312 139.753906 C 214.445312 139.753906 214.390625 139.808594 214.363281 139.835938 C 215.269531 140.851562 216.175781 141.871094 217.085938 142.886719 C 217.113281 142.886719 217.140625 142.832031 217.167969 142.832031 C 217.167969 142.722656 217.140625 142.640625 217.113281 142.53125 C 216.808594 141.101562 217.058594 141.511719 215.929688 140.742188 C 215.433594 140.414062 214.941406 140.082031 214.445312 139.753906 Z M 158.132812 181.824219 C 158.132812 181.824219 158.050781 181.851562 158.050781 181.878906 C 157.941406 182.894531 157.804688 183.910156 157.71875 184.902344 C 157.71875 184.957031 157.832031 185.09375 157.886719 185.09375 C 158.160156 185.09375 158.40625 185.09375 158.738281 185.09375 C 158.519531 183.996094 158.324219 182.894531 158.132812 181.792969 Z M 180.378906 159.46875 L 180.265625 159.414062 C 180.265625 159.414062 180.15625 159.605469 180.15625 159.714844 C 180.15625 159.992188 180.15625 160.292969 180.101562 160.539062 C 179.773438 162.023438 178.863281 163.179688 178.039062 164.363281 C 177.765625 164.773438 177.433594 165.160156 177.132812 165.570312 C 177.160156 165.570312 177.1875 165.597656 177.214844 165.628906 C 178.808594 163.839844 180.324219 162.023438 180.378906 159.441406 Z M 227.726562 182.179688 C 227.726562 182.179688 227.644531 182.179688 227.589844 182.179688 C 227.535156 182.867188 227.449219 183.554688 227.421875 184.269531 C 227.421875 184.324219 227.535156 184.433594 227.589844 184.433594 C 227.863281 184.433594 228.136719 184.433594 228.46875 184.433594 C 228.191406 183.636719 227.945312 182.894531 227.699219 182.179688 Z M 221.152344 147.09375 C 221.152344 147.09375 221.210938 147.09375 221.238281 147.09375 C 221.238281 146.984375 221.238281 146.875 221.238281 146.765625 C 221.238281 146.050781 221.210938 145.308594 221.183594 144.59375 C 221.183594 144.125 221.015625 143.960938 220.4375 143.851562 C 220.6875 144.949219 220.90625 146.023438 221.125 147.121094 Z M 176.914062 163.289062 C 176.171875 164.03125 174.574219 166.808594 174.492188 167.496094 C 175.289062 166.121094 176.089844 164.746094 176.914062 163.289062 Z M 222.914062 189.988281 C 222.914062 189.988281 222.996094 189.988281 223.050781 189.988281 C 223.132812 189.191406 223.1875 188.394531 223.242188 187.625 C 223.242188 187.542969 223.132812 187.460938 223.078125 187.375 C 223.023438 187.460938 222.914062 187.570312 222.914062 187.652344 C 222.914062 188.449219 222.914062 189.21875 222.914062 190.015625 Z M 170.507812 170.769531 C 170.507812 170.769531 170.617188 170.742188 170.671875 170.714844 C 170.339844 169.863281 170.011719 169.007812 169.679688 168.183594 C 169.625 168.183594 169.570312 168.210938 169.515625 168.238281 C 169.847656 169.089844 170.175781 169.917969 170.507812 170.769531 Z M 172.128906 178.109375 C 172.128906 178.109375 172.128906 178.027344 172.128906 177.972656 C 171.386719 177.917969 170.644531 177.808594 169.902344 177.835938 C 169.902344 177.890625 169.902344 177.945312 169.902344 178 C 170.644531 178.027344 171.386719 178.082031 172.128906 178.109375 Z M 177.601562 163.539062 L 177.683594 163.59375 L 179.113281 161.394531 L 179.003906 161.308594 L 177.601562 163.511719 Z M 153.457031 146.65625 C 153.457031 146.65625 153.402344 146.570312 153.375 146.515625 C 153.074219 146.710938 152.742188 146.902344 152.441406 147.09375 C 152.441406 147.121094 152.46875 147.148438 152.496094 147.175781 C 152.828125 146.984375 153.238281 146.957031 153.457031 146.628906 Z M 169.738281 178.109375 C 169.765625 178.46875 169.929688 178.523438 170.5625 178.441406 C 170.285156 178.332031 170.039062 178.21875 169.738281 178.109375 Z M 169.792969 171.042969 C 169.792969 171.042969 169.847656 171.015625 169.875 170.988281 C 169.738281 170.742188 169.570312 170.492188 169.433594 170.21875 C 169.433594 170.21875 169.378906 170.246094 169.351562 170.273438 C 169.488281 170.519531 169.652344 170.769531 169.792969 171.042969 Z M 169.792969 171.042969 " fill-opacity="1" fill-rule="nonzero"/></g><g fill="#1a1a1a" fill-opacity="1"><g transform="translate(105.174274, 241.680045)"><g><path d="M 21.109375 0 L 20.875 0 L 16.15625 -11.234375 L 11.5 0 L 11.1875 0 L 1.171875 -23.703125 L 4.09375 -23.703125 L 12.640625 -3.359375 L 16.046875 -11.53125 L 11 -23.703125 L 13.8125 -23.703125 L 17.46875 -14.875 L 19.5 -19.609375 C 20.15625 -21.265625 21.113281 -22.441406 22.375 -23.140625 C 23.632812 -23.847656 24.945312 -23.929688 26.3125 -23.390625 C 27.175781 -23.054688 27.816406 -22.566406 28.234375 -21.921875 C 28.648438 -21.273438 28.867188 -20.546875 28.890625 -19.734375 C 28.910156 -18.929688 28.742188 -18.117188 28.390625 -17.296875 Z M 17.65625 -14.515625 L 22.328125 -3.359375 L 28.21875 -17.296875 C 28.53125 -18.078125 28.679688 -18.859375 28.671875 -19.640625 C 28.660156 -20.421875 28.457031 -21.128906 28.0625 -21.765625 C 27.675781 -22.398438 27.070312 -22.875 26.25 -23.1875 C 25.28125 -23.550781 24.367188 -23.601562 23.515625 -23.34375 C 22.671875 -23.082031 21.925781 -22.617188 21.28125 -21.953125 C 20.632812 -21.285156 20.117188 -20.503906 19.734375 -19.609375 Z M 17.65625 -14.515625 "/></g></g></g><g fill="#1a1a1a" fill-opacity="1"><g transform="translate(136.517686, 241.680045)"><g><path d="M 3.75 -15.78125 L 3.75 -0.265625 L 9.421875 -0.265625 C 10.867188 -0.265625 12.054688 -0.617188 12.984375 -1.328125 C 13.910156 -2.046875 14.675781 -3.253906 15.28125 -4.953125 L 14.515625 0 L 1.171875 0 L 1.171875 -23.65625 L 14.71875 -23.65625 L 14.71875 -20.984375 C 13.9375 -21.742188 13.175781 -22.296875 12.4375 -22.640625 C 11.695312 -22.984375 10.863281 -23.195312 9.9375 -23.28125 C 9.007812 -23.375 7.863281 -23.421875 6.5 -23.421875 L 3.75 -23.421875 L 3.75 -18 C 3.75 -16.476562 4.003906 -15.316406 4.515625 -14.515625 C 5.035156 -13.710938 5.804688 -13.171875 6.828125 -12.890625 C 7.859375 -12.609375 9.144531 -12.46875 10.6875 -12.46875 L 10.6875 -9.8125 C 10.195312 -10.375 9.609375 -10.816406 8.921875 -11.140625 C 8.242188 -11.460938 7.550781 -11.796875 6.84375 -12.140625 C 6.144531 -12.492188 5.515625 -12.941406 4.953125 -13.484375 C 4.398438 -14.035156 4 -14.800781 3.75 -15.78125 Z M 3.75 -15.78125 "/></g></g></g><g fill="#1a1a1a" fill-opacity="1"><g transform="translate(154.217575, 241.680045)"><g><path d="M 15.34375 -4.953125 L 14.546875 0 L 1.171875 0 L 1.171875 -23.65625 L 3.859375 -23.65625 L 3.859375 -0.265625 L 9.515625 -0.265625 C 10.972656 -0.265625 12.148438 -0.617188 13.046875 -1.328125 C 13.953125 -2.046875 14.71875 -3.253906 15.34375 -4.953125 Z M 15.34375 -4.953125 "/></g></g></g><g fill="#1a1a1a" fill-opacity="1"><g transform="translate(171.984517, 241.680045)"><g><path d="M 15.34375 -4.953125 L 14.546875 0 L 1.171875 0 L 1.171875 -23.65625 L 3.859375 -23.65625 L 3.859375 -0.265625 L 9.515625 -0.265625 C 10.972656 -0.265625 12.148438 -0.617188 13.046875 -1.328125 C 13.953125 -2.046875 14.71875 -3.253906 15.34375 -4.953125 Z M 15.34375 -4.953125 "/></g></g></g><g fill="#1a1a1a" fill-opacity="1"><g transform="translate(189.751452, 241.680045)"><g><path d="M 1.171875 -23.65625 L 3.6875 -23.65625 C 5.519531 -23.65625 7.144531 -23.035156 8.5625 -21.796875 C 9.976562 -20.554688 11.164062 -18.96875 12.125 -17.03125 C 13.113281 -15.195312 13.894531 -13.175781 14.46875 -10.96875 C 15.050781 -8.769531 15.46875 -6.585938 15.71875 -4.421875 L 15.71875 -23.65625 L 18.234375 -23.65625 L 18.234375 0 L 15.71875 0 C 15.71875 -1.789062 15.578125 -3.675781 15.296875 -5.65625 C 15.015625 -7.644531 14.597656 -9.613281 14.046875 -11.5625 C 13.503906 -13.507812 12.820312 -15.285156 12 -16.890625 C 10.988281 -18.816406 9.800781 -20.382812 8.4375 -21.59375 C 7.082031 -22.8125 5.5 -23.421875 3.6875 -23.421875 L 3.6875 0 L 1.171875 0 Z M 1.171875 -23.65625 "/></g></g></g><g fill="#1a1a1a" fill-opacity="1"><g transform="translate(210.401291, 241.680045)"><g><path d="M 3.75 -15.78125 L 3.75 -0.265625 L 9.421875 -0.265625 C 10.867188 -0.265625 12.054688 -0.617188 12.984375 -1.328125 C 13.910156 -2.046875 14.675781 -3.253906 15.28125 -4.953125 L 14.515625 0 L 1.171875 0 L 1.171875 -23.65625 L 14.71875 -23.65625 L 14.71875 -20.984375 C 13.9375 -21.742188 13.175781 -22.296875 12.4375 -22.640625 C 11.695312 -22.984375 10.863281 -23.195312 9.9375 -23.28125 C 9.007812 -23.375 7.863281 -23.421875 6.5 -23.421875 L 3.75 -23.421875 L 3.75 -18 C 3.75 -16.476562 4.003906 -15.316406 4.515625 -14.515625 C 5.035156 -13.710938 5.804688 -13.171875 6.828125 -12.890625 C 7.859375 -12.609375 9.144531 -12.46875 10.6875 -12.46875 L 10.6875 -9.8125 C 10.195312 -10.375 9.609375 -10.816406 8.921875 -11.140625 C 8.242188 -11.460938 7.550781 -11.796875 6.84375 -12.140625 C 6.144531 -12.492188 5.515625 -12.941406 4.953125 -13.484375 C 4.398438 -14.035156 4 -14.800781 3.75 -15.78125 Z M 3.75 -15.78125 "/></g></g></g><g fill="#1a1a1a" fill-opacity="1"><g transform="translate(228.101177, 241.680045)"><g><path d="M 2.875 -17.96875 C 2.875 -19.21875 3.175781 -20.253906 3.78125 -21.078125 C 4.382812 -21.910156 5.171875 -22.554688 6.140625 -23.015625 C 7.117188 -23.472656 8.1875 -23.75 9.34375 -23.84375 C 10.507812 -23.945312 11.660156 -23.882812 12.796875 -23.65625 C 13.941406 -23.4375 14.976562 -23.066406 15.90625 -22.546875 C 16.832031 -22.035156 17.53125 -21.390625 18 -20.609375 L 18 -17.09375 C 17.144531 -18.8125 16.160156 -20.148438 15.046875 -21.109375 C 13.929688 -22.078125 12.78125 -22.734375 11.59375 -23.078125 C 10.40625 -23.421875 9.273438 -23.515625 8.203125 -23.359375 C 7.140625 -23.203125 6.210938 -22.859375 5.421875 -22.328125 C 4.773438 -21.898438 4.332031 -21.359375 4.09375 -20.703125 C 3.863281 -20.054688 3.929688 -19.328125 4.296875 -18.515625 C 4.671875 -17.703125 5.414062 -16.835938 6.53125 -15.921875 C 7.65625 -15.003906 9.234375 -14.066406 11.265625 -13.109375 C 12.492188 -12.585938 13.648438 -12.003906 14.734375 -11.359375 C 15.816406 -10.710938 16.695312 -9.929688 17.375 -9.015625 C 18.0625 -8.097656 18.40625 -6.984375 18.40625 -5.671875 C 18.40625 -4.773438 18.226562 -3.972656 17.875 -3.265625 C 17.53125 -2.566406 17.054688 -1.96875 16.453125 -1.46875 C 15.492188 -0.738281 14.34375 -0.269531 13 -0.0625 C 11.664062 0.132812 10.265625 0.0859375 8.796875 -0.203125 C 7.335938 -0.492188 5.9375 -1.023438 4.59375 -1.796875 C 3.25 -2.566406 2.109375 -3.554688 1.171875 -4.765625 L 1.171875 -9.421875 C 1.992188 -7.335938 3.03125 -5.601562 4.28125 -4.21875 C 5.539062 -2.832031 6.890625 -1.804688 8.328125 -1.140625 C 9.765625 -0.472656 11.171875 -0.179688 12.546875 -0.265625 C 13.921875 -0.359375 15.132812 -0.851562 16.1875 -1.75 C 16.75 -2.21875 17.101562 -2.769531 17.25 -3.40625 C 17.394531 -4.039062 17.257812 -4.75 16.84375 -5.53125 C 16.425781 -6.3125 15.664062 -7.128906 14.5625 -7.984375 C 13.457031 -8.847656 11.929688 -9.726562 9.984375 -10.625 C 8.773438 -11.15625 7.628906 -11.742188 6.546875 -12.390625 C 5.460938 -13.046875 4.578125 -13.816406 3.890625 -14.703125 C 3.210938 -15.597656 2.875 -16.6875 2.875 -17.96875 Z M 2.875 -17.96875 "/></g></g></g><g fill="#1a1a1a" fill-opacity="1"><g transform="translate(248.91862, 241.680045)"><g><path d="M 9.15625 0 L 9.15625 -23.421875 C 7.96875 -23.421875 6.910156 -23.367188 5.984375 -23.265625 C 5.054688 -23.171875 4.207031 -22.960938 3.4375 -22.640625 C 2.664062 -22.316406 1.910156 -21.796875 1.171875 -21.078125 L 1.171875 -23.703125 L 19.703125 -23.703125 L 19.703125 -21.078125 C 18.941406 -21.796875 18.175781 -22.316406 17.40625 -22.640625 C 16.632812 -22.960938 15.789062 -23.171875 14.875 -23.265625 C 13.957031 -23.367188 12.910156 -23.421875 11.734375 -23.421875 L 11.734375 0 Z M 9.15625 0 "/></g></g></g><g fill="#1a1a1a" fill-opacity="1"><g transform="translate(125.397843, 257.826369)"><g><path d="M 3.3125 -3.234375 L 1.859375 -3.234375 L 1.859375 0 L 0.875 0 L 0.875 -8.109375 L 3.625 -8.109375 C 4.28125 -8.109375 4.816406 -7.988281 5.234375 -7.75 C 5.660156 -7.507812 5.96875 -7.203125 6.15625 -6.828125 C 6.34375 -6.460938 6.4375 -6.078125 6.4375 -5.671875 C 6.4375 -5.109375 6.265625 -4.601562 5.921875 -4.15625 C 5.585938 -3.707031 5.066406 -3.421875 4.359375 -3.296875 L 6.5 0 L 5.40625 0 Z M 1.859375 -4.09375 L 3.5 -4.09375 C 4.050781 -4.09375 4.515625 -4.210938 4.890625 -4.453125 C 5.265625 -4.691406 5.453125 -5.097656 5.453125 -5.671875 C 5.453125 -6.234375 5.265625 -6.628906 4.890625 -6.859375 C 4.515625 -7.097656 4.050781 -7.21875 3.5 -7.21875 L 1.859375 -7.21875 Z M 1.859375 -4.09375 "/></g></g></g><g fill="#1a1a1a" fill-opacity="1"><g transform="translate(134.729928, 257.826369)"><g><path d="M 1.875 -7.21875 L 1.875 -4.546875 L 5.390625 -4.546875 L 5.390625 -3.734375 L 1.875 -3.734375 L 1.875 -0.90625 L 5.859375 -0.90625 L 5.859375 0 L 0.875 0 L 0.875 -8.109375 L 5.859375 -8.109375 L 5.859375 -7.21875 Z M 1.875 -7.21875 "/></g></g></g><g fill="#1a1a1a" fill-opacity="1"><g transform="translate(143.644785, 257.826369)"><g><path d="M 3.546875 0.09375 C 2.921875 0.09375 2.382812 -0.0351562 1.9375 -0.296875 C 1.5 -0.554688 1.164062 -0.890625 0.9375 -1.296875 C 0.71875 -1.703125 0.609375 -2.128906 0.609375 -2.578125 L 0.609375 -2.640625 L 1.703125 -2.640625 L 1.703125 -2.578125 C 1.703125 -2.304688 1.765625 -2.035156 1.890625 -1.765625 C 2.023438 -1.503906 2.226562 -1.28125 2.5 -1.09375 C 2.78125 -0.914062 3.140625 -0.828125 3.578125 -0.828125 C 4.085938 -0.828125 4.503906 -0.957031 4.828125 -1.21875 C 5.160156 -1.476562 5.328125 -1.832031 5.328125 -2.28125 C 5.328125 -2.65625 5.207031 -2.953125 4.96875 -3.171875 C 4.726562 -3.390625 4.414062 -3.539062 4.03125 -3.625 L 2.859375 -3.84375 C 1.492188 -4.144531 0.8125 -4.859375 0.8125 -5.984375 C 0.8125 -6.441406 0.921875 -6.84375 1.140625 -7.1875 C 1.367188 -7.539062 1.679688 -7.8125 2.078125 -8 C 2.472656 -8.195312 2.9375 -8.296875 3.46875 -8.296875 C 4.0625 -8.296875 4.570312 -8.175781 5 -7.9375 C 5.425781 -7.695312 5.742188 -7.382812 5.953125 -7 C 6.171875 -6.613281 6.28125 -6.21875 6.28125 -5.8125 L 6.28125 -5.765625 L 5.1875 -5.765625 L 5.1875 -5.796875 C 5.1875 -6.023438 5.128906 -6.257812 5.015625 -6.5 C 4.898438 -6.75 4.710938 -6.960938 4.453125 -7.140625 C 4.191406 -7.316406 3.851562 -7.40625 3.4375 -7.40625 C 2.945312 -7.40625 2.554688 -7.269531 2.265625 -7 C 1.972656 -6.726562 1.828125 -6.394531 1.828125 -6 C 1.828125 -5.65625 1.9375 -5.375 2.15625 -5.15625 C 2.382812 -4.9375 2.691406 -4.789062 3.078125 -4.71875 L 4.15625 -4.515625 C 5.644531 -4.210938 6.390625 -3.476562 6.390625 -2.3125 C 6.390625 -1.84375 6.269531 -1.425781 6.03125 -1.0625 C 5.800781 -0.695312 5.46875 -0.410156 5.03125 -0.203125 C 4.59375 -0.00390625 4.097656 0.09375 3.546875 0.09375 Z M 3.546875 0.09375 "/></g></g></g><g fill="#1a1a1a" fill-opacity="1"><g transform="translate(152.907338, 257.826369)"><g><path d="M 6.296875 -7.21875 L 3.90625 -7.21875 L 3.90625 0 L 2.90625 0 L 2.90625 -7.21875 L 0.515625 -7.21875 L 0.515625 -8.109375 L 6.296875 -8.109375 Z M 6.296875 -7.21875 "/></g></g></g><g fill="#1a1a1a" fill-opacity="1"><g transform="translate(162.053993, 257.826369)"><g/></g></g><g fill="#1a1a1a" fill-opacity="1"><g transform="translate(167.039898, 257.826369)"><g><path d="M 7.640625 0 L 6.5 0 L 5.28125 -1.375 L 5.21875 -1.375 L 5.140625 -1.28125 C 4.941406 -0.945312 4.65625 -0.632812 4.28125 -0.34375 C 3.90625 -0.0625 3.425781 0.078125 2.84375 0.078125 C 2.425781 0.078125 2.050781 -0.00390625 1.71875 -0.171875 C 1.394531 -0.335938 1.132812 -0.578125 0.9375 -0.890625 C 0.75 -1.210938 0.65625 -1.585938 0.65625 -2.015625 C 0.65625 -2.546875 0.796875 -2.988281 1.078125 -3.34375 C 1.359375 -3.695312 1.75 -3.96875 2.25 -4.15625 L 2.671875 -4.296875 L 2.671875 -4.34375 L 2.625 -4.40625 C 2.382812 -4.65625 2.175781 -4.925781 2 -5.21875 C 1.832031 -5.519531 1.75 -5.875 1.75 -6.28125 C 1.75 -6.707031 1.847656 -7.066406 2.046875 -7.359375 C 2.253906 -7.660156 2.523438 -7.882812 2.859375 -8.03125 C 3.191406 -8.1875 3.550781 -8.265625 3.9375 -8.265625 C 4.351562 -8.265625 4.734375 -8.179688 5.078125 -8.015625 C 5.421875 -7.847656 5.695312 -7.597656 5.90625 -7.265625 C 6.125 -6.941406 6.234375 -6.550781 6.234375 -6.09375 L 6.234375 -5.84375 L 5.203125 -5.84375 L 5.203125 -6.03125 C 5.203125 -6.457031 5.078125 -6.789062 4.828125 -7.03125 C 4.585938 -7.269531 4.289062 -7.390625 3.9375 -7.390625 C 3.601562 -7.390625 3.316406 -7.289062 3.078125 -7.09375 C 2.847656 -6.894531 2.734375 -6.609375 2.734375 -6.234375 C 2.734375 -6.015625 2.769531 -5.816406 2.84375 -5.640625 C 2.925781 -5.460938 3.019531 -5.300781 3.125 -5.15625 C 3.238281 -5.019531 3.421875 -4.8125 3.671875 -4.53125 L 5.140625 -2.875 L 5.90625 -4.21875 L 6.921875 -4.21875 L 5.71875 -2.203125 Z M 4.703125 -2.046875 L 3.21875 -3.734375 L 2.703125 -3.5625 C 2.347656 -3.4375 2.078125 -3.25 1.890625 -3 C 1.703125 -2.75 1.609375 -2.457031 1.609375 -2.125 C 1.609375 -1.71875 1.734375 -1.394531 1.984375 -1.15625 C 2.234375 -0.914062 2.566406 -0.796875 2.984375 -0.796875 C 3.398438 -0.796875 3.734375 -0.90625 3.984375 -1.125 C 4.234375 -1.34375 4.445312 -1.601562 4.625 -1.90625 Z M 4.703125 -2.046875 "/></g></g></g><g fill="#1a1a1a" fill-opacity="1"><g transform="translate(176.708095, 257.826369)"><g/></g></g><g fill="#1a1a1a" fill-opacity="1"><g transform="translate(181.693999, 257.826369)"><g><path d="M 3.3125 -3.234375 L 1.859375 -3.234375 L 1.859375 0 L 0.875 0 L 0.875 -8.109375 L 3.625 -8.109375 C 4.28125 -8.109375 4.816406 -7.988281 5.234375 -7.75 C 5.660156 -7.507812 5.96875 -7.203125 6.15625 -6.828125 C 6.34375 -6.460938 6.4375 -6.078125 6.4375 -5.671875 C 6.4375 -5.109375 6.265625 -4.601562 5.921875 -4.15625 C 5.585938 -3.707031 5.066406 -3.421875 4.359375 -3.296875 L 6.5 0 L 5.40625 0 Z M 1.859375 -4.09375 L 3.5 -4.09375 C 4.050781 -4.09375 4.515625 -4.210938 4.890625 -4.453125 C 5.265625 -4.691406 5.453125 -5.097656 5.453125 -5.671875 C 5.453125 -6.234375 5.265625 -6.628906 4.890625 -6.859375 C 4.515625 -7.097656 4.050781 -7.21875 3.5 -7.21875 L 1.859375 -7.21875 Z M 1.859375 -4.09375 "/></g></g></g><g fill="#1a1a1a" fill-opacity="1"><g transform="translate(191.026083, 257.826369)"><g><path d="M 1.875 -7.21875 L 1.875 -4.546875 L 5.390625 -4.546875 L 5.390625 -3.734375 L 1.875 -3.734375 L 1.875 -0.90625 L 5.859375 -0.90625 L 5.859375 0 L 0.875 0 L 0.875 -8.109375 L 5.859375 -8.109375 L 5.859375 -7.21875 Z M 1.875 -7.21875 "/></g></g></g><g fill="#1a1a1a" fill-opacity="1"><g transform="translate(199.940938, 257.826369)"><g><path d="M 0.875 -8.109375 L 2 -8.109375 L 6.34375 -1.59375 L 6.390625 -1.59375 L 6.390625 -8.109375 L 7.375 -8.109375 L 7.375 0 L 6.234375 0 L 1.90625 -6.421875 L 1.859375 -6.421875 L 1.859375 0 L 0.875 0 Z M 0.875 -8.109375 "/></g></g></g><g fill="#1a1a1a" fill-opacity="1"><g transform="translate(210.501545, 257.826369)"><g><path d="M 1.875 -7.21875 L 1.875 -4.546875 L 5.390625 -4.546875 L 5.390625 -3.734375 L 1.875 -3.734375 L 1.875 -0.90625 L 5.859375 -0.90625 L 5.859375 0 L 0.875 0 L 0.875 -8.109375 L 5.859375 -8.109375 L 5.859375 -7.21875 Z M 1.875 -7.21875 "/></g></g></g><g fill="#1a1a1a" fill-opacity="1"><g transform="translate(219.416401, 257.826369)"><g><path d="M 0.171875 -8.109375 L 1.171875 -8.109375 L 2.984375 -1.1875 L 3.046875 -1.1875 L 5.296875 -8.109375 L 6.21875 -8.109375 L 8.453125 -1.1875 L 8.515625 -1.1875 L 10.34375 -8.109375 L 11.34375 -8.109375 L 9.15625 0 L 7.84375 0 L 5.78125 -6.359375 L 5.71875 -6.359375 L 3.65625 0 L 2.34375 0 Z M 0.171875 -8.109375 "/></g></g></g><g fill="#1a1a1a" fill-opacity="1"><g transform="translate(233.245343, 257.826369)"><g><path d="M 5.59375 -2.359375 L 2.296875 -2.359375 L 1.4375 0 L 0.421875 0 L 3.46875 -8.109375 L 4.421875 -8.109375 L 7.484375 0 L 6.46875 0 Z M 5.3125 -3.171875 L 3.953125 -6.84375 L 3.90625 -6.84375 L 2.578125 -3.171875 Z M 5.3125 -3.171875 "/></g></g></g><g fill="#1a1a1a" fill-opacity="1"><g transform="translate(243.446663, 257.826369)"><g><path d="M 5.65625 -0.90625 L 5.65625 0 L 0.875 0 L 0.875 -8.109375 L 1.875 -8.109375 L 1.859375 -0.90625 Z M 5.65625 -0.90625 "/></g></g></g></svg>