<svg xmlns="http://www.w3.org/2000/svg" xmlns:xlink="http://www.w3.org/1999/xlink" width="500" zoomAndPan="magnify" viewBox="0 0 375 374.999991" height="500" preserveAspectRatio="xMidYMid meet" version="1.0"><defs><clipPath id="052f74eff1"><path d="M 2 5 L 374 5 L 374 370.171875 L 2 370.171875 Z M 2 5 " clip-rule="nonzero"/></clipPath></defs><g clip-path="url(#052f74eff1)"><path fill="#457d58" d="M 68.453125 370.375 C 68.453125 370.375 67.957031 369.78125 67.761719 369.386719 C 66.277344 367.011719 65.980469 364.339844 65.484375 361.667969 C 64.097656 352.761719 64.199219 343.855469 64.792969 334.949219 C 65.285156 326.832031 65.980469 318.71875 66.671875 310.703125 C 66.671875 309.910156 66.574219 309.417969 65.78125 308.921875 C 64.792969 308.328125 63.902344 307.734375 63.011719 306.941406 C 61.230469 305.457031 60.535156 303.28125 60.4375 301.105469 C 60.140625 297.046875 59.941406 292.988281 59.644531 288.933594 C 59.546875 287.25 59.644531 287.152344 57.863281 287.347656 C 51.53125 287.746094 45.296875 288.339844 38.964844 288.734375 C 30.847656 289.128906 22.734375 289.425781 14.621094 289.625 C 13.53125 289.625 12.542969 289.527344 11.453125 289.230469 C 10.859375 289.03125 10.167969 288.535156 10.066406 288.042969 C 10.066406 287.546875 10.5625 286.855469 10.957031 286.457031 C 11.75 285.863281 12.738281 285.46875 13.628906 284.972656 C 13.628906 285.074219 13.828125 285.269531 13.828125 285.371094 C 13.136719 285.863281 12.542969 286.261719 11.847656 286.753906 C 11.847656 286.753906 11.847656 286.953125 11.847656 287.050781 C 12.34375 287.050781 12.738281 287.050781 13.234375 287.050781 C 17.886719 286.457031 22.636719 285.765625 27.285156 285.171875 C 35.796875 284.082031 44.40625 282.996094 52.917969 281.90625 C 54.402344 281.707031 55.886719 281.511719 57.371094 281.410156 C 58.359375 281.410156 58.753906 281.015625 58.65625 279.925781 C 58.160156 275.472656 57.765625 271.019531 57.269531 266.566406 C 57.269531 265.675781 56.777344 265.378906 55.886719 265.28125 C 48.363281 264.785156 40.746094 264.191406 33.222656 263.699219 C 26.296875 263.300781 19.371094 262.90625 12.441406 262.511719 C 10.363281 262.410156 8.386719 261.816406 6.308594 261.421875 C 5.515625 261.222656 4.824219 260.925781 4.128906 260.433594 C 2.546875 259.542969 1.855469 257.859375 2.347656 256.375 C 2.84375 254.792969 4.128906 253.902344 6.109375 254 C 8.78125 254.199219 11.453125 254.394531 14.125 254.496094 C 24.019531 254.792969 34.015625 254.988281 43.910156 255.1875 C 47.574219 255.285156 51.136719 255.582031 54.796875 255.78125 C 56.28125 255.78125 56.378906 255.78125 56.183594 254.296875 C 54.5 239.550781 52.816406 224.808594 51.035156 210.0625 C 49.355469 196.011719 47.277344 181.957031 45.691406 167.90625 C 45 161.96875 45.097656 155.933594 44.800781 149.894531 C 44.703125 146.035156 44.605469 142.175781 44.503906 138.316406 C 44.503906 136.636719 44.40625 136.636719 42.824219 137.128906 C 30.652344 141.285156 18.378906 145.441406 6.207031 149.597656 C 5.515625 149.796875 4.722656 150.09375 4.03125 150.09375 C 3.4375 150.09375 2.644531 149.699219 2.449219 149.203125 C 2.25 148.808594 2.449219 147.816406 2.941406 147.421875 C 3.734375 146.628906 4.722656 145.9375 5.714844 145.542969 C 14.917969 141.285156 24.121094 137.03125 33.324219 132.875 C 36.390625 131.488281 39.457031 130.300781 42.625 129.015625 C 43.613281 128.621094 44.011719 128.125 43.8125 127.035156 C 42.824219 117.140625 41.933594 107.246094 41.042969 97.347656 C 40.347656 89.136719 39.753906 80.921875 41.238281 72.707031 C 41.4375 71.421875 41.832031 70.035156 42.425781 68.847656 C 43.515625 66.871094 45.691406 66.472656 47.277344 68.058594 C 48.363281 69.246094 49.355469 70.628906 50.046875 72.113281 C 52.125 76.171875 52.816406 80.722656 53.90625 85.078125 C 55.589844 92.203125 57.074219 99.328125 58.753906 106.453125 C 58.753906 106.847656 58.953125 107.144531 59.152344 107.9375 C 60.734375 106.453125 62.121094 105.167969 63.40625 103.683594 C 63.703125 103.386719 63.503906 102.496094 63.40625 102 C 62.714844 90.71875 61.921875 79.339844 61.328125 68.058594 C 61.03125 62.417969 61.128906 56.675781 61.128906 51.035156 C 61.128906 50.246094 61.128906 49.355469 62.21875 49.15625 C 63.308594 48.957031 64 49.75 64.199219 50.640625 C 64.792969 53.015625 65.484375 55.488281 65.78125 57.964844 C 67.265625 70.730469 68.75 83.59375 70.234375 96.457031 C 70.234375 96.855469 70.433594 97.25 70.53125 97.84375 C 71.027344 97.546875 71.324219 97.347656 71.621094 97.152344 C 76.964844 93.09375 82.40625 89.035156 87.847656 85.078125 C 88.839844 84.285156 89.332031 83.496094 89.433594 82.207031 C 90.421875 73.300781 91.3125 64.496094 92.5 55.589844 C 93.09375 51.136719 94.082031 46.683594 95.964844 42.527344 C 96.359375 41.535156 97.050781 40.546875 97.84375 39.855469 C 100.019531 37.875 103.386719 38.863281 104.078125 41.734375 C 104.375 43.019531 104.375 44.503906 104.277344 45.890625 C 103.484375 55.09375 102.691406 64.296875 101.800781 73.402344 C 101.800781 73.894531 101.800781 74.390625 101.800781 75.183594 C 102.394531 74.785156 102.988281 74.589844 103.386719 74.292969 C 110.015625 69.839844 116.449219 64.890625 123.375 61.03125 C 137.230469 53.113281 149.996094 43.613281 163.15625 34.707031 C 164.9375 33.519531 166.816406 32.332031 168.597656 31.246094 C 168.996094 31.046875 169.390625 30.75 169.886719 30.453125 C 169.488281 29.957031 169.09375 29.660156 168.796875 29.265625 C 166.125 26.097656 163.355469 22.933594 160.683594 19.667969 C 160.386719 19.269531 160.285156 18.777344 160.089844 18.28125 C 160.582031 18.28125 161.078125 18.28125 161.574219 18.480469 C 166.222656 20.261719 170.378906 22.832031 174.339844 25.605469 C 175.425781 26.394531 176.121094 26.296875 177.207031 25.605469 C 179.089844 24.21875 181.066406 23.128906 183.046875 22.042969 C 185.125 20.855469 187.203125 19.765625 189.28125 18.578125 C 192.152344 16.894531 194.921875 16.894531 197.792969 18.578125 C 200.066406 19.863281 202.34375 21.050781 204.519531 22.339844 C 206.996094 23.824219 209.371094 25.605469 211.84375 27.1875 C 213.328125 28.175781 214.714844 29.066406 216.199219 30.058594 C 219.464844 32.035156 222.628906 34.015625 225.996094 35.996094 C 225.597656 35.5 225.203125 35.003906 224.808594 34.511719 C 220.15625 28.671875 215.503906 22.933594 211.050781 17.09375 C 209.371094 14.917969 208.082031 12.441406 206.699219 10.167969 C 206.300781 9.574219 206.003906 8.683594 206.003906 7.988281 C 206.003906 7.199219 206.300781 6.109375 206.894531 5.714844 C 207.390625 5.316406 208.578125 5.515625 209.171875 5.910156 C 210.753906 7 212.238281 8.1875 213.625 9.472656 C 220.253906 15.410156 225.699219 22.238281 231.140625 29.167969 C 236.683594 36.292969 242.222656 43.515625 247.765625 50.640625 C 248.65625 51.730469 249.746094 52.71875 250.933594 53.511719 C 255.089844 56.183594 259.441406 58.558594 263.597656 61.230469 C 269.636719 65.089844 275.574219 69.246094 281.511719 73.203125 C 283.589844 74.589844 285.667969 75.972656 287.746094 77.359375 C 287.84375 77.359375 287.941406 77.261719 288.140625 77.160156 C 288.140625 76.566406 288.042969 75.875 287.941406 75.28125 C 286.855469 67.066406 285.667969 58.855469 284.578125 50.640625 C 284.378906 49.453125 284.578125 48.066406 284.777344 46.878906 C 285.269531 44.703125 287.347656 44.109375 288.933594 45.496094 C 289.921875 46.386719 290.8125 47.472656 291.308594 48.761719 C 293.089844 53.511719 294.871094 58.160156 296.15625 63.011719 C 298.136719 70.53125 299.71875 78.25 301.597656 85.871094 C 301.796875 86.761719 302.488281 87.652344 303.183594 88.34375 C 304.566406 89.53125 306.152344 90.519531 307.832031 91.808594 C 307.832031 90.917969 307.933594 90.421875 307.933594 89.925781 C 308.128906 84.582031 308.03125 79.140625 308.425781 73.796875 C 308.722656 68.75 309.8125 63.800781 311.496094 59.050781 C 311.59375 58.65625 311.988281 58.457031 312.1875 58.0625 C 312.386719 58.359375 312.582031 58.753906 312.683594 59.050781 C 313.375 64.199219 314.265625 69.441406 314.660156 74.589844 C 315.15625 81.613281 315.253906 88.640625 315.453125 95.667969 C 315.453125 96.953125 315.847656 97.746094 316.839844 98.535156 C 320.105469 101.40625 323.371094 104.277344 326.636719 107.246094 C 326.933594 107.542969 327.328125 107.839844 327.824219 108.332031 C 328.019531 107.542969 328.21875 106.949219 328.316406 106.355469 C 330.59375 96.457031 332.871094 86.464844 335.34375 76.566406 C 335.839844 74.390625 337.125 72.511719 338.015625 70.433594 C 338.214844 69.9375 338.609375 69.542969 339.003906 69.144531 C 341.082031 66.769531 343.953125 67.066406 344.941406 70.136719 C 345.832031 73.003906 346.230469 76.074219 346.527344 79.140625 C 347.21875 86.761719 346.527344 94.378906 345.636719 101.902344 C 343.558594 119.316406 342.46875 136.734375 342.171875 154.152344 C 342.171875 155.339844 342.667969 156.03125 343.558594 156.625 C 349.097656 160.878906 354.738281 165.136719 360.28125 169.488281 C 362.0625 170.875 363.644531 172.457031 365.230469 174.042969 C 365.824219 174.636719 366.316406 175.230469 366.613281 176.019531 C 367.109375 177.011719 367.011719 178 366.121094 178.792969 C 365.328125 179.582031 364.339844 179.78125 363.347656 179.1875 C 361.566406 178 359.785156 176.8125 358.003906 175.527344 C 353.058594 172.0625 348.011719 168.5 343.0625 165.035156 C 342.765625 164.839844 342.46875 164.738281 342.074219 164.441406 C 341.972656 164.839844 341.875 165.136719 341.777344 165.433594 C 340.390625 176.019531 339.105469 186.609375 337.71875 197.199219 C 336.332031 207.886719 334.949219 218.574219 333.859375 229.359375 C 333.660156 231.339844 334.355469 233.515625 334.847656 235.59375 C 336.136719 241.730469 337.621094 247.863281 338.90625 254 C 339.105469 254.988281 339.5 255.1875 340.390625 255.1875 C 345.734375 254.988281 351.078125 254.792969 356.519531 254.691406 C 357.90625 254.691406 359.390625 254.691406 360.777344 255.089844 C 363.347656 255.78125 364.140625 258.453125 362.0625 260.234375 C 360.875 261.222656 359.390625 262.113281 357.90625 262.410156 C 352.859375 263.402344 347.8125 264.09375 342.765625 264.785156 C 342.074219 264.886719 341.378906 264.984375 340.589844 264.984375 C 340.785156 266.074219 340.984375 267.0625 341.183594 268.050781 C 340.984375 268.050781 340.886719 268.152344 340.6875 268.25 C 340.292969 267.558594 339.796875 266.964844 339.5 266.269531 C 339.105469 265.378906 338.609375 265.082031 337.621094 265.183594 C 335.640625 265.28125 333.761719 265.378906 331.78125 265.378906 C 330.496094 265.378906 330 265.777344 329.902344 267.0625 C 329.703125 270.230469 329.308594 273.394531 328.910156 276.5625 C 328.8125 277.75 329.207031 278.046875 330.296875 278.144531 C 334.75 278.542969 339.203125 278.839844 343.558594 279.332031 C 349.988281 280.125 356.421875 281.015625 362.953125 282.003906 C 366.316406 282.5 369.683594 283.09375 373.046875 283.6875 C 373.34375 283.6875 373.640625 283.984375 373.9375 284.183594 C 373.640625 284.378906 373.441406 284.777344 373.144531 284.777344 C 365.625 285.765625 358.105469 286.855469 350.484375 287.449219 C 343.558594 288.042969 336.628906 288.140625 329.703125 288.4375 C 328.019531 288.4375 328.019531 288.4375 327.921875 290.21875 C 327.722656 293.878906 327.425781 297.441406 327.230469 301.105469 C 327.03125 306.050781 324.261719 308.625 319.410156 310.40625 C 318.816406 310.605469 318.222656 310.703125 317.53125 310.800781 C 315.75 311.199219 315.75 311.199219 315.75 313.078125 C 315.75 319.113281 315.75 325.050781 315.550781 331.089844 C 315.550781 332.769531 315.15625 334.550781 314.660156 336.136719 C 314.464844 337.027344 313.671875 337.816406 312.980469 338.410156 C 312.582031 338.707031 311.691406 338.707031 311.296875 338.410156 C 310.902344 338.113281 310.503906 337.324219 310.605469 336.828125 C 312.089844 329.011719 310.605469 321.09375 310.800781 313.277344 C 310.800781 312.386719 310.800781 311.691406 309.515625 311.890625 C 296.652344 313.375 283.785156 312.1875 271.019531 311.496094 C 267.65625 311.296875 264.292969 311.097656 260.925781 311.199219 C 254.59375 311.296875 248.359375 310.800781 242.027344 310.308594 C 234.40625 309.613281 226.785156 309.417969 219.066406 308.921875 C 213.527344 308.527344 207.984375 308.03125 202.542969 307.636719 C 193.535156 307.042969 184.53125 307.636719 175.527344 308.328125 C 169.886719 308.824219 164.34375 309.019531 158.703125 309.417969 C 151.578125 309.910156 144.550781 310.503906 137.425781 311 C 135.746094 311.097656 133.964844 311.296875 132.183594 311.199219 C 124.5625 310.902344 116.84375 311.496094 109.222656 311.988281 C 103.285156 312.386719 97.347656 312.683594 91.3125 312.683594 C 86.464844 312.683594 81.613281 312.1875 76.765625 311.792969 C 75.675781 311.792969 75.28125 311.988281 75.183594 313.078125 C 74.6875 321.984375 74.09375 330.890625 73.597656 339.796875 C 73.105469 349.199219 71.621094 358.5 69.441406 367.605469 C 69.246094 368.496094 69.046875 369.484375 68.75 370.472656 C 68.75 370.574219 68.550781 370.671875 68.355469 370.871094 Z M 238.761719 258.949219 C 238.761719 258.949219 238.761719 259.144531 238.859375 259.246094 C 242.816406 258.949219 246.875 258.652344 250.832031 258.453125 C 269.734375 257.5625 288.734375 256.671875 307.636719 255.78125 C 308.824219 255.78125 309.121094 255.386719 309.121094 254.199219 C 308.921875 223.324219 308.230469 192.546875 309.019531 161.671875 C 309.019531 160.386719 308.824219 159.097656 308.425781 157.8125 C 306.347656 150.589844 304.269531 143.464844 302.191406 136.238281 C 301.796875 134.855469 301.203125 133.964844 300.113281 133.074219 C 291.800781 126.542969 283.390625 120.011719 275.175781 113.28125 C 262.511719 102.988281 249.941406 92.5 237.175781 82.308594 C 226.09375 73.402344 214.714844 64.890625 203.53125 56.082031 C 202.542969 55.292969 201.75 55.292969 200.761719 55.984375 C 192.449219 60.832031 184.234375 65.878906 175.722656 70.53125 C 150.390625 84.1875 125.058594 97.746094 99.722656 111.300781 C 98.238281 112.09375 97.644531 113.082031 97.449219 114.667969 C 96.855469 120.40625 96.0625 126.046875 95.371094 131.785156 C 93.6875 145.046875 91.90625 158.207031 90.222656 171.371094 C 88.34375 186.609375 86.464844 201.75 84.683594 216.988281 C 84.1875 221.441406 83.394531 225.894531 83.988281 230.546875 C 84.582031 235.296875 84.878906 240.144531 85.375 244.894531 C 85.769531 248.558594 86.167969 252.316406 86.5625 255.980469 C 86.660156 256.96875 86.957031 257.5625 88.246094 257.5625 C 92.597656 257.5625 96.855469 257.859375 101.207031 257.957031 C 109.222656 258.253906 117.238281 258.453125 125.15625 258.652344 C 127.433594 258.652344 129.410156 257.859375 131.390625 257.167969 C 130.996094 256.769531 130.597656 256.574219 130.203125 256.277344 C 126.9375 254 123.472656 251.921875 120.308594 249.449219 C 116.746094 246.578125 114.171875 243.015625 113.082031 238.5625 C 112.191406 235.199219 112.390625 232.128906 115.261719 229.558594 C 115.359375 229.558594 115.457031 229.261719 115.558594 229.0625 C 114.371094 228.566406 113.183594 228.171875 111.996094 227.578125 C 109.917969 226.488281 108.828125 224.511719 109.027344 222.433594 C 109.222656 220.453125 110.707031 218.871094 113.082031 218.277344 C 115.0625 217.78125 117.042969 217.386719 119.019531 216.792969 C 121.199219 216.199219 123.375 215.503906 125.652344 214.8125 C 124.167969 213.128906 122.683594 211.644531 121.394531 210.0625 C 120.40625 208.972656 119.417969 207.785156 118.824219 206.5 C 115.753906 200.167969 114.46875 193.339844 114.566406 186.3125 C 114.566406 181.464844 114.566406 176.714844 114.667969 171.863281 C 114.667969 171.371094 114.964844 170.675781 115.359375 170.480469 C 115.753906 170.28125 116.644531 170.378906 116.941406 170.675781 C 117.734375 171.371094 118.625 172.160156 119.019531 173.152344 C 120.207031 175.722656 121.988281 177.605469 123.96875 179.484375 C 126.839844 182.253906 128.917969 185.421875 130.203125 189.183594 C 130.894531 191.457031 131.589844 193.734375 132.28125 196.207031 C 132.480469 195.714844 132.675781 195.316406 132.777344 195.019531 C 136.140625 184.730469 141.1875 175.328125 149.003906 167.707031 C 151.875 164.9375 155.042969 162.5625 159 161.472656 C 160.386719 161.078125 161.671875 160.386719 163.15625 159.890625 C 163.847656 159.691406 164.738281 159.394531 165.332031 159.59375 C 166.324219 159.988281 165.925781 160.980469 165.828125 161.871094 C 165.628906 163.15625 165.332031 164.34375 165.234375 165.628906 C 164.839844 169.886719 164.246094 174.042969 162.265625 177.902344 C 159 184.234375 154.546875 189.777344 149.300781 194.527344 C 144.847656 198.582031 140.496094 202.738281 136.832031 207.6875 C 136.238281 208.480469 135.644531 209.371094 135.941406 210.65625 C 136.832031 210.261719 137.722656 209.964844 138.515625 209.667969 C 153.160156 204.222656 168.300781 201.15625 183.839844 199.769531 C 208.972656 197.59375 234.011719 198.683594 258.847656 203.53125 C 265.875 204.917969 272.605469 206.996094 278.9375 210.457031 C 280.816406 211.449219 282.597656 212.832031 284.082031 214.316406 C 286.359375 216.691406 286.261719 220.058594 284.082031 222.433594 C 283.09375 223.421875 281.90625 224.113281 280.816406 225.003906 C 280.421875 225.300781 279.925781 225.699219 279.730469 226.191406 C 278.640625 228.269531 277.847656 230.449219 276.660156 232.425781 C 274.089844 236.683594 270.328125 239.847656 266.566406 243.015625 C 266.171875 243.3125 265.875 243.707031 265.378906 244.105469 C 273 245.292969 280.324219 246.480469 287.644531 247.667969 C 287.644531 247.863281 287.644531 247.964844 287.644531 248.160156 C 287.25 248.261719 286.753906 248.558594 286.359375 248.558594 C 284.972656 248.753906 283.488281 248.855469 282.105469 248.953125 C 274.285156 249.25 266.46875 249.546875 258.652344 249.84375 C 257.761719 249.84375 256.769531 250.140625 256.078125 250.636719 C 251.230469 253.605469 246.082031 256.175781 240.738281 258.253906 C 240.144531 258.453125 239.550781 258.75 238.957031 259.046875 Z M 178.792969 280.917969 C 169.984375 281.3125 153.753906 281.808594 137.527344 282.597656 C 125.253906 283.191406 113.082031 283.984375 100.8125 284.675781 C 93.390625 285.074219 86.066406 285.667969 78.644531 286.0625 C 77.855469 286.0625 77.457031 286.359375 77.359375 287.25 C 77.160156 289.824219 76.964844 292.496094 76.667969 295.066406 C 76.667969 295.957031 76.863281 296.253906 77.855469 296.15625 C 86.265625 294.574219 94.875 294.375 103.386719 293.980469 C 113.578125 293.582031 123.769531 292.496094 134.0625 292.890625 C 134.753906 292.890625 135.546875 292.890625 136.238281 292.792969 C 145.246094 292.199219 154.25 291.605469 163.355469 290.910156 C 171.566406 290.316406 179.78125 290.21875 188.09375 291.011719 C 191.953125 291.40625 195.910156 291.308594 199.871094 291.011719 C 206.203125 290.613281 212.636719 290.121094 218.96875 290.515625 C 226.886719 291.109375 234.800781 291.40625 242.621094 291.800781 C 247.667969 292.097656 252.714844 292.59375 257.761719 292.792969 C 263.597656 293.089844 269.535156 293.1875 275.375 293.386719 C 278.738281 293.484375 282.003906 293.78125 285.371094 293.878906 C 293.386719 294.078125 301.402344 294.375 309.21875 295.859375 C 310.109375 296.058594 310.40625 295.761719 310.40625 294.871094 C 310.40625 292.792969 310.207031 290.714844 310.207031 288.636719 C 310.207031 287.449219 309.714844 287.050781 308.527344 287.050781 C 286.160156 285.667969 263.894531 284.28125 241.53125 282.894531 C 223.125 281.707031 204.621094 280.816406 178.691406 280.816406 Z M 98.933594 102.394531 C 99.722656 102 100.21875 101.800781 100.613281 101.605469 C 116.152344 93.292969 131.6875 84.980469 147.222656 76.566406 C 163.355469 67.859375 179.582031 59.347656 196.703125 52.519531 C 197 52.421875 197.296875 52.222656 197.691406 51.925781 C 197.394531 51.730469 197.199219 51.628906 197 51.53125 C 192.644531 48.167969 188.191406 44.800781 183.839844 41.339844 C 183.046875 40.746094 182.453125 40.746094 181.660156 41.339844 C 176.8125 44.902344 171.964844 48.464844 167.015625 51.828125 C 159.59375 56.972656 151.972656 61.921875 144.15625 66.375 C 128.917969 75.183594 114.964844 86.066406 100.417969 95.863281 C 100.019531 96.0625 99.625 96.558594 99.527344 96.953125 C 99.230469 98.636719 99.03125 100.316406 98.734375 102.496094 Z M 263.996094 214.121094 L 263.996094 213.824219 C 263.996094 213.824219 263.300781 213.625 262.90625 213.527344 C 256.277344 212.042969 249.449219 211.347656 242.621094 210.953125 C 232.230469 210.359375 221.738281 209.863281 211.347656 209.566406 C 205.609375 209.371094 199.769531 209.566406 193.933594 209.566406 C 194.824219 209.667969 195.714844 209.667969 196.605469 209.765625 C 204.816406 210.558594 212.933594 211.25 221.046875 212.140625 C 225.402344 212.636719 229.855469 213.425781 234.207031 214.21875 C 239.253906 215.207031 244.203125 216.296875 249.25 217.484375 C 249.644531 217.484375 249.941406 217.878906 250.238281 218.078125 C 250.238281 218.175781 250.140625 218.277344 250.042969 218.375 C 247.863281 218.175781 245.589844 217.980469 243.410156 217.78125 C 239.355469 217.386719 235.296875 216.988281 231.140625 216.691406 C 224.707031 216.296875 218.277344 216.097656 211.84375 215.800781 C 196.109375 215.109375 180.375 214.515625 164.640625 215.800781 C 155.734375 216.59375 146.828125 217.878906 138.019531 219.363281 C 137.722656 219.363281 137.328125 219.5625 137.03125 219.761719 C 138.910156 220.550781 140.59375 221.441406 142.671875 221.144531 C 146.730469 220.453125 150.886719 219.761719 154.941406 219.363281 C 159.890625 218.871094 164.9375 218.574219 169.886719 218.472656 C 175.921875 218.375 182.058594 218.472656 188.09375 218.574219 C 188.292969 218.574219 188.390625 218.769531 188.589844 218.871094 C 188.589844 218.96875 188.589844 219.167969 188.589844 219.265625 L 153.160156 222.628906 C 153.160156 222.628906 153.160156 222.828125 153.160156 222.925781 C 153.65625 222.925781 154.050781 223.125 154.546875 223.125 C 162.066406 223.519531 169.6875 223.71875 177.207031 223.324219 C 183.046875 223.027344 188.984375 223.324219 194.824219 223.324219 C 195.121094 223.324219 195.613281 223.324219 195.613281 223.421875 C 195.910156 224.808594 197 224.214844 197.691406 224.214844 C 206.894531 223.816406 216.097656 223.324219 225.300781 222.828125 C 229.65625 222.628906 234.109375 222.628906 238.464844 221.9375 C 244.796875 220.949219 251.03125 219.464844 257.066406 217.089844 C 259.34375 216.199219 261.519531 215.207031 263.796875 214.316406 Z M 71.125 256.671875 C 71.125 256.671875 71.421875 256.671875 71.519531 256.671875 C 71.621094 256.175781 71.816406 255.683594 71.816406 255.1875 C 73.105469 242.324219 74.390625 229.558594 75.675781 216.691406 C 75.875 214.515625 76.074219 212.238281 75.875 209.964844 C 75.28125 204.816406 74.191406 199.671875 73.597656 194.527344 C 71.027344 172.855469 68.550781 151.082031 65.980469 129.410156 C 65.980469 129.015625 65.78125 128.519531 65.683594 127.925781 C 64.792969 128.324219 64 128.71875 63.207031 129.015625 C 62.121094 129.410156 61.722656 130.003906 61.824219 131.191406 C 62.121094 134.855469 62.515625 138.417969 62.613281 142.078125 C 63.011719 164.839844 64.59375 187.5 66.96875 210.0625 C 67.660156 216.296875 68.453125 222.53125 68.949219 228.765625 C 69.640625 237.671875 70.136719 246.675781 70.730469 255.582031 C 70.730469 255.980469 70.925781 256.375 71.125 256.769531 Z M 210.457031 50.640625 C 240.640625 72.113281 269.042969 95.269531 297.246094 118.722656 C 296.949219 118.03125 296.652344 117.4375 296.15625 116.941406 C 285.667969 105.066406 275.277344 93.191406 264.785156 81.316406 C 263.5 79.832031 262.113281 78.347656 260.433594 77.261719 C 253.40625 72.707031 246.183594 68.453125 239.15625 63.902344 C 231.4375 58.855469 223.816406 53.707031 216.097656 48.5625 C 215.703125 48.265625 215.011719 47.96875 214.714844 48.066406 C 213.328125 48.761719 211.941406 49.550781 210.359375 50.441406 Z M 229.261719 272.207031 C 229.261719 272.207031 230.152344 272.207031 230.546875 272.207031 C 242.324219 272.800781 254.199219 273.394531 265.972656 273.988281 C 280.027344 274.683594 294.078125 275.375 308.128906 276.066406 C 309.121094 276.066406 309.515625 275.871094 309.417969 274.78125 C 309.316406 272.308594 309.21875 269.832031 309.21875 267.261719 C 309.21875 265.378906 309.21875 265.28125 307.238281 265.378906 C 288.238281 266.074219 269.238281 266.765625 250.238281 267.457031 C 249.84375 267.457031 249.347656 267.457031 248.953125 267.457031 C 248.558594 267.457031 248.261719 267.457031 247.863281 267.558594 C 253.207031 268.746094 258.652344 268.84375 263.996094 269.832031 C 263.996094 270.03125 263.996094 270.328125 263.996094 270.527344 C 252.515625 271.613281 240.9375 271.515625 229.359375 271.910156 Z M 78.84375 181.660156 C 78.84375 181.660156 79.140625 181.660156 79.339844 181.660156 C 81.613281 160.582031 83.988281 139.605469 86.265625 118.230469 C 85.472656 118.527344 85.078125 118.722656 84.78125 118.824219 C 81.316406 120.503906 77.855469 122.1875 74.390625 123.769531 C 73.402344 124.265625 73.105469 124.761719 73.203125 125.949219 C 74.886719 142.472656 76.566406 158.902344 78.25 175.425781 C 78.449219 177.503906 78.746094 179.582031 78.941406 181.660156 Z M 134.261719 269.042969 C 134.261719 269.042969 134.261719 268.746094 134.261719 268.644531 C 118.722656 268.152344 103.285156 267.65625 87.652344 267.261719 C 88.046875 270.625 88.34375 273.792969 88.738281 276.957031 C 88.640625 276.957031 88.441406 276.957031 88.34375 277.058594 C 88.144531 276.761719 87.847656 276.464844 87.847656 276.167969 C 87.355469 273.496094 86.761719 270.824219 86.265625 268.152344 C 86.167969 267.457031 85.871094 267.160156 85.175781 267.0625 C 83.59375 267.0625 82.011719 266.964844 80.527344 266.863281 C 79.636719 266.863281 79.339844 267.0625 79.238281 267.953125 C 78.941406 271.316406 78.644531 274.683594 78.25 278.046875 C 78.152344 279.035156 78.449219 279.332031 79.4375 279.234375 C 80.921875 279.035156 82.503906 278.9375 83.988281 278.738281 C 85.671875 278.542969 87.355469 278.542969 88.9375 278.144531 C 92.996094 277.058594 96.953125 275.671875 101.109375 274.683594 C 110.707031 272.207031 120.605469 270.722656 130.5 269.636719 C 131.886719 269.4375 133.269531 269.238281 134.558594 269.140625 Z M 159.394531 235.394531 C 160.1875 235.394531 160.980469 235.394531 161.769531 235.394531 C 167.113281 235.890625 172.359375 236.484375 177.703125 236.980469 C 190.863281 238.167969 204.027344 239.253906 217.089844 240.34375 C 218.472656 240.441406 219.859375 240.640625 221.144531 240.34375 C 231.832031 238.066406 242.519531 235.496094 252.8125 231.734375 C 253.207031 231.636719 253.605469 231.4375 254 231.238281 C 254 231.140625 254 230.941406 254 230.84375 C 229.457031 233.121094 204.917969 233.714844 180.277344 233.121094 C 180.277344 233.316406 180.277344 233.515625 180.277344 233.714844 C 194.425781 234.207031 208.675781 234.605469 222.828125 235.097656 L 222.828125 235.394531 C 201.652344 237.277344 180.574219 235.988281 159.394531 235.394531 Z M 315.15625 182.75 C 315.15625 182.75 314.957031 182.75 314.859375 182.75 C 314.859375 183.441406 314.859375 184.035156 314.859375 184.730469 C 314.859375 207.886719 314.859375 230.941406 314.859375 254.097656 C 314.859375 254.296875 314.859375 254.496094 314.859375 254.59375 C 315.058594 254.890625 315.453125 255.484375 315.652344 255.386719 C 316.046875 255.386719 316.542969 254.988281 316.640625 254.59375 C 316.839844 254.097656 316.640625 253.40625 316.738281 252.8125 C 317.433594 243.707031 317.925781 234.503906 318.71875 225.402344 C 319.3125 218.871094 320.105469 212.238281 320.699219 205.707031 C 320.796875 204.519531 320.699219 203.332031 320.402344 202.246094 C 318.816406 196.011719 317.035156 189.875 315.355469 183.640625 C 315.355469 183.34375 315.058594 182.949219 314.957031 182.652344 Z M 196.605469 253.011719 C 196.605469 253.011719 196.605469 253.40625 196.605469 253.605469 C 200.167969 254.097656 203.730469 254.890625 207.390625 255.089844 C 213.722656 255.285156 220.058594 255.089844 226.390625 255.089844 C 227.777344 255.089844 229.261719 255.089844 230.546875 254.496094 C 234.109375 253.207031 237.472656 251.722656 241.035156 250.238281 C 241.332031 250.140625 241.53125 249.941406 242.027344 249.546875 C 241.433594 249.546875 241.234375 249.347656 241.035156 249.347656 C 233.8125 248.953125 226.6875 248.558594 219.464844 248.160156 C 218.574219 248.160156 217.683594 248.160156 216.792969 248.359375 C 211.746094 249.449219 206.597656 250.636719 201.550781 251.722656 C 199.96875 252.121094 198.285156 252.515625 196.703125 252.8125 Z M 322.675781 181.5625 C 322.675781 181.5625 322.875 181.5625 323.074219 181.5625 C 323.074219 181.265625 323.269531 180.96875 323.269531 180.574219 C 323.765625 171.269531 324.160156 161.96875 324.558594 152.765625 C 324.558594 152.171875 324.160156 151.28125 323.667969 150.886719 C 321.488281 149.203125 319.214844 147.519531 316.9375 145.9375 C 316.640625 145.738281 316.34375 145.640625 315.949219 145.441406 C 315.75 148.113281 315.652344 150.589844 316.246094 153.0625 C 317.925781 160.1875 319.511719 167.410156 321.09375 174.535156 C 321.589844 176.910156 322.183594 179.285156 322.777344 181.660156 Z M 324.855469 139.011719 C 324.855469 139.011719 325.050781 138.417969 325.050781 138.316406 C 325.546875 132.875 326.042969 127.332031 326.535156 121.890625 C 326.535156 121 326.238281 120.503906 325.546875 120.109375 C 322.675781 118.328125 319.808594 116.644531 316.839844 114.863281 C 316.640625 114.765625 316.34375 114.765625 316.046875 114.667969 C 316.046875 115.0625 315.949219 115.359375 315.949219 115.65625 C 315.949219 119.910156 315.949219 124.167969 315.949219 128.421875 C 315.949219 129.015625 316.34375 129.707031 316.738281 130.203125 C 319.015625 132.777344 321.390625 135.347656 323.667969 137.921875 C 323.964844 138.21875 324.261719 138.515625 324.753906 139.011719 Z M 188.886719 35.996094 C 189.378906 36.292969 189.578125 36.292969 189.777344 36.488281 C 195.316406 40.347656 200.761719 44.207031 206.300781 47.96875 C 206.597656 48.167969 206.996094 48.363281 207.191406 48.265625 C 208.972656 47.671875 210.753906 46.980469 212.933594 46.285156 C 212.140625 45.691406 211.644531 45.296875 211.25 45 C 207.984375 42.722656 204.621094 40.449219 201.355469 38.171875 C 199.078125 36.589844 196.902344 34.90625 194.625 33.222656 C 194.328125 33.027344 193.636719 32.828125 193.339844 33.027344 C 191.953125 33.917969 190.667969 34.808594 188.886719 36.09375 Z M 190.269531 246.28125 C 190.269531 246.28125 190.269531 246.082031 190.269531 245.984375 C 176.417969 244.203125 162.5625 242.324219 148.609375 240.542969 C 149.003906 240.9375 149.402344 241.136719 149.796875 241.234375 C 156.824219 243.113281 163.847656 245.09375 170.777344 246.972656 C 174.042969 247.863281 177.308594 249.25 180.769531 248.0625 C 181.363281 247.863281 182.058594 247.863281 182.652344 247.667969 C 185.125 247.171875 187.699219 246.675781 190.171875 246.28125 Z M 242.519531 241.925781 C 246.183594 242.222656 249.84375 242.519531 253.503906 242.71875 C 254.097656 242.71875 254.691406 242.621094 255.1875 242.324219 C 261.027344 238.660156 266.667969 234.605469 271.714844 229.953125 C 272.207031 229.558594 272.605469 229.0625 273 228.566406 C 263.597656 234.703125 253.109375 238.363281 242.519531 241.925781 Z M 155.140625 252.417969 L 155.140625 252.019531 C 155.140625 252.019531 154.449219 251.722656 154.050781 251.527344 C 149.5 249.84375 145.046875 248.0625 141.1875 244.996094 C 139.40625 243.609375 137.722656 242.027344 136.636719 240.144531 C 135.746094 238.660156 134.855469 237.96875 133.171875 237.769531 C 132.378906 237.769531 131.488281 237.472656 130.699219 237.375 C 130.003906 237.277344 129.3125 237.175781 128.71875 237.175781 C 129.214844 237.96875 129.808594 238.464844 130.402344 238.859375 C 135.25 242.421875 140.199219 245.785156 144.847656 249.644531 C 148.015625 252.316406 151.675781 251.625 155.140625 252.316406 Z M 254.59375 220.75 C 257.859375 221.144531 273.691406 218.671875 275.175781 217.683594 C 275.175781 217.683594 275.078125 217.484375 274.980469 217.386719 C 272.605469 216.496094 270.328125 215.605469 267.953125 214.8125 C 267.65625 214.714844 267.261719 214.8125 266.863281 215.011719 C 265.28125 215.800781 263.699219 216.59375 262.113281 217.285156 C 259.738281 218.375 257.265625 219.464844 254.496094 220.75 Z M 87.355469 104.769531 C 86.167969 105.464844 85.078125 106.15625 83.988281 106.75 C 80.328125 108.925781 76.765625 111.105469 73.105469 113.28125 C 72.113281 113.875 71.816406 114.566406 72.511719 115.65625 C 72.90625 115.457031 73.300781 115.359375 73.699219 115.160156 C 77.457031 113.28125 81.316406 111.5 85.078125 109.621094 C 87.355469 108.53125 87.75 107.738281 87.253906 104.871094 Z M 121.394531 181.464844 C 123.574219 188.589844 126.441406 195.316406 129.707031 201.949219 C 129.113281 194.230469 127.332031 187.003906 121.394531 181.464844 Z M 164.144531 260.035156 C 164.144531 260.035156 164.144531 260.234375 164.144531 260.433594 C 170.28125 260.730469 176.515625 261.027344 182.652344 261.324219 L 182.652344 260.925781 C 179.582031 260.035156 176.515625 259.144531 173.449219 258.253906 C 173.050781 258.15625 172.558594 258.253906 172.0625 258.253906 C 170.972656 258.453125 169.886719 258.652344 168.796875 258.949219 C 167.214844 259.246094 165.628906 259.640625 164.046875 260.035156 Z M 284.480469 94.082031 C 284.480469 94.082031 284.28125 94.28125 284.183594 94.378906 C 287.449219 98.042969 290.714844 101.703125 293.980469 105.363281 C 294.078125 105.363281 294.175781 105.167969 294.277344 105.167969 C 294.277344 104.769531 294.175781 104.472656 294.078125 104.078125 C 292.988281 98.933594 293.878906 100.417969 289.824219 97.644531 C 288.042969 96.457031 286.261719 95.269531 284.480469 94.082031 Z M 81.8125 245.488281 C 81.8125 245.488281 81.515625 245.589844 81.515625 245.6875 C 81.121094 249.347656 80.625 253.011719 80.328125 256.574219 C 80.328125 256.769531 80.722656 257.265625 80.921875 257.265625 C 81.910156 257.265625 82.800781 257.265625 83.988281 257.265625 C 83.199219 253.308594 82.503906 249.347656 81.8125 245.390625 Z M 161.871094 165.035156 L 161.472656 164.839844 C 161.472656 164.839844 161.078125 165.53125 161.078125 165.925781 C 161.078125 166.917969 161.078125 168.003906 160.878906 168.894531 C 159.691406 174.238281 156.425781 178.394531 153.457031 182.652344 C 152.46875 184.136719 151.28125 185.519531 150.191406 187.003906 C 150.292969 187.003906 150.390625 187.105469 150.488281 187.203125 C 156.230469 180.769531 161.671875 174.238281 161.871094 164.9375 Z M 332.277344 246.777344 C 332.277344 246.777344 331.980469 246.777344 331.78125 246.777344 C 331.582031 249.25 331.285156 251.722656 331.1875 254.296875 C 331.1875 254.496094 331.582031 254.890625 331.78125 254.890625 C 332.769531 254.890625 333.761719 254.890625 334.949219 254.890625 C 333.957031 252.019531 333.066406 249.347656 332.175781 246.777344 Z M 308.625 120.503906 C 308.625 120.503906 308.824219 120.503906 308.921875 120.503906 C 308.921875 120.109375 308.921875 119.714844 308.921875 119.316406 C 308.921875 116.746094 308.824219 114.074219 308.722656 111.5 C 308.722656 109.816406 308.128906 109.222656 306.050781 108.828125 C 306.941406 112.785156 307.734375 116.644531 308.527344 120.605469 Z M 149.402344 178.792969 C 146.730469 181.464844 140.988281 191.457031 140.691406 193.933594 C 143.5625 188.984375 146.433594 184.035156 149.402344 178.792969 Z M 314.957031 274.878906 C 314.957031 274.878906 315.253906 274.878906 315.453125 274.878906 C 315.75 272.011719 315.949219 269.140625 316.144531 266.371094 C 316.144531 266.074219 315.75 265.777344 315.550781 265.480469 C 315.355469 265.777344 314.957031 266.171875 314.957031 266.46875 C 314.957031 269.339844 314.957031 272.109375 314.957031 274.980469 Z M 126.34375 205.707031 C 126.34375 205.707031 126.738281 205.609375 126.9375 205.511719 C 125.75 202.441406 124.5625 199.375 123.375 196.40625 C 123.175781 196.40625 122.980469 196.503906 122.78125 196.605469 C 123.96875 199.671875 125.15625 202.640625 126.34375 205.707031 Z M 132.183594 232.128906 C 132.183594 232.128906 132.183594 231.832031 132.183594 231.636719 C 129.511719 231.4375 126.839844 231.042969 124.167969 231.140625 C 124.167969 231.339844 124.167969 231.535156 124.167969 231.734375 C 126.839844 231.832031 129.511719 232.03125 132.183594 232.128906 Z M 151.875 179.683594 L 152.171875 179.878906 L 157.316406 171.964844 L 156.921875 171.667969 L 151.875 179.582031 Z M 64.988281 118.921875 C 64.988281 118.921875 64.792969 118.625 64.691406 118.425781 C 63.605469 119.121094 62.417969 119.8125 61.328125 120.503906 C 61.328125 120.605469 61.425781 120.703125 61.527344 120.800781 C 62.714844 120.109375 64.199219 120.011719 64.988281 118.824219 Z M 123.574219 232.128906 C 123.671875 233.417969 124.265625 233.613281 126.542969 233.316406 C 125.550781 232.921875 124.660156 232.527344 123.574219 232.128906 Z M 123.769531 206.699219 C 123.769531 206.699219 123.96875 206.597656 124.066406 206.5 C 123.574219 205.609375 122.980469 204.71875 122.484375 203.730469 C 122.484375 203.730469 122.285156 203.828125 122.1875 203.925781 C 122.683594 204.816406 123.277344 205.707031 123.769531 206.699219 Z M 123.769531 206.699219 " fill-opacity="1" fill-rule="nonzero"/></g></svg>